<svg width="16" height="16" viewBox="0 0 16 16" fill="none" xmlns="http://www.w3.org/2000/svg">
<path d="M10.5197 9.02167C10.5197 10.0353 11.3458 10.8613 12.3594 10.8613C13.3729 10.8613 14.199 10.0352 14.199 9.02167C14.1997 8.00808 13.3756 7.18201 12.3601 7.18201C11.3458 7.18201 10.5197 8.0081 10.5197 9.02167ZM12.3601 7.50876C13.195 7.50876 13.873 8.18675 13.873 9.02167C13.873 9.8566 13.195 10.5346 12.3601 10.5346C11.5251 10.5346 10.8471 9.8566 10.8471 9.02167C10.8471 8.18878 11.5272 7.50876 12.3601 7.50876ZM12.3601 11.0761C10.3533 11.0761 8.72004 12.7092 8.72004 14.7161V15.2344C8.72004 15.5042 8.93946 15.7249 9.21053 15.7249H15.5095C15.7792 15.7249 16 15.5055 16 15.2344V14.7161C16 12.7086 14.3669 11.0761 12.3601 11.0761ZM15.6733 15.2344C15.6733 15.3247 15.5999 15.3981 15.5096 15.3981H14.5666V14.1182C14.5666 14.0278 14.4932 13.9545 14.4029 13.9545C14.3125 13.9545 14.2392 14.0278 14.2392 14.1182V15.3981L10.4804 15.3974V14.1175C10.4804 14.0271 10.407 13.9538 10.3166 13.9538C10.2263 13.9538 10.1529 14.0271 10.1529 14.1175V15.3974H9.20998C9.11963 15.3974 9.04625 15.324 9.04625 15.2337V14.7153C9.04625 12.8892 10.5313 11.4021 12.3595 11.4021C14.1877 11.4021 15.6727 12.8872 15.6727 14.7153L15.6733 15.2344ZM3.64002 10.862C4.6536 10.862 5.47968 10.0359 5.47968 9.02233C5.48036 8.00807 4.65426 7.18198 3.64002 7.18198C2.62643 7.18198 1.80036 8.00807 1.80036 9.02164C1.80036 10.0359 2.62441 10.862 3.64002 10.862ZM3.64002 7.50876C4.47494 7.50876 5.15293 8.18675 5.15293 9.02167C5.15293 9.8566 4.47494 10.5346 3.64002 10.5346C2.80509 10.5346 2.1271 9.8566 2.1271 9.02167C2.12507 8.18878 2.80509 7.50876 3.64002 7.50876ZM3.64002 11.0761C1.63322 11.0761 0 12.7086 0 14.7161V15.2344C0 15.5042 0.219427 15.7249 0.490489 15.7249H6.78947C7.05918 15.7249 7.27996 15.5055 7.27996 15.2344V14.7161C7.2786 12.7086 5.64552 11.0761 3.64002 11.0761ZM6.95116 15.2344C6.95116 15.3247 6.87779 15.3981 6.78744 15.3981H5.84449V14.1182C5.84449 14.0278 5.77112 13.9545 5.68077 13.9545C5.59042 13.9545 5.51704 14.0278 5.51704 14.1182V15.3981L1.75825 15.3974V14.1175C1.75825 14.0271 1.68488 13.9538 1.59452 13.9538C1.50417 13.9538 1.4308 14.0271 1.4308 14.1175V15.3974H0.490585C0.400231 15.3974 0.326861 15.324 0.326861 15.2337V14.7153C0.326861 12.8892 1.81193 11.4021 3.64009 11.4021C5.46619 11.4021 6.95332 12.8872 6.95332 14.7153V15.2344L6.95116 15.2344ZM9.99813 7.78737C10.0416 7.78737 10.0851 7.78058 10.1286 7.76631C10.3059 7.7106 10.4241 7.54688 10.4241 7.36278V6.1318H10.9961C11.4465 6.1318 11.812 5.76495 11.812 5.3159L11.8127 2.07067C11.8127 1.62027 11.4458 1.25477 10.9968 1.25477H10.2875V1.09105C10.2875 0.640644 9.92069 0.275146 9.47164 0.275146L4.35145 0.275826C3.90104 0.275826 3.53555 0.64268 3.53555 1.09172V4.33696C3.53555 4.78736 3.9024 5.15286 4.35145 5.15286H4.92347V6.38383C4.92347 6.56997 5.04167 6.73166 5.21898 6.78737C5.26246 6.80095 5.30594 6.80843 5.34942 6.80843C5.48325 6.80843 5.61368 6.74389 5.69385 6.62909L6.04848 6.1318H8.60153L9.65385 7.60803C9.73402 7.72284 9.86429 7.78737 9.99813 7.78737ZM5.4282 6.43954C5.40238 6.47622 5.3623 6.48981 5.31882 6.47622C5.27534 6.46264 5.25089 6.42731 5.25089 6.38247V4.98777C5.25089 4.89742 5.17752 4.82405 5.08716 4.82405H4.35142C4.08171 4.82405 3.86093 4.60462 3.86093 4.33356V1.09163C3.86093 0.821926 4.08036 0.601143 4.35142 0.601143H9.4697C9.73941 0.601143 9.96019 0.82057 9.96019 1.09163V4.33686C9.96019 4.60657 9.74077 4.82735 9.4697 4.82735H6.66256C6.61025 4.82735 6.55998 4.85317 6.53009 4.89529L5.4282 6.43954ZM8.6856 5.80435H6.28003L6.74471 5.15014H9.4682C9.9186 5.15014 10.2841 4.78329 10.2841 4.33424L10.2834 1.58223H10.9927C11.2624 1.58223 11.4831 1.80166 11.4831 2.07272V5.31795C11.4831 5.58766 11.2637 5.80844 10.9927 5.80844L10.261 5.80776C10.1706 5.80776 10.0973 5.88113 10.0973 5.97148V7.36619C10.0973 7.4117 10.0715 7.44635 10.0293 7.45994C9.98586 7.47352 9.94578 7.45994 9.91996 7.42325L8.81942 5.87705C8.78817 5.83086 8.73723 5.80435 8.6856 5.80435ZM8.34117 2.7139C8.34117 2.48429 8.52731 2.29679 8.75828 2.29679C8.98926 2.29679 9.1754 2.48293 9.1754 2.7139C9.1754 2.94488 8.98926 3.13102 8.75828 3.13102C8.52731 3.1317 8.34117 2.94352 8.34117 2.7139ZM5.48046 2.7139C5.48046 2.94352 5.29432 3.13102 5.06334 3.13102C4.83237 3.13102 4.64623 2.94488 4.64623 2.7139C4.64623 2.48293 4.83237 2.29679 5.06334 2.29679C5.29432 2.29679 5.48046 2.48293 5.48046 2.7139ZM6.49405 2.7139C6.49405 2.48429 6.68018 2.29679 6.91116 2.29679C7.14213 2.29679 7.32828 2.48293 7.32828 2.7139C7.32828 2.94488 7.14213 3.13102 6.91116 3.13102C6.68018 3.1317 6.49405 2.94352 6.49405 2.7139Z" fill="black"/>
</svg>
