<svg width="16" height="16" viewBox="0 0 16 16" fill="none" xmlns="http://www.w3.org/2000/svg">
<path fill-rule="evenodd" clip-rule="evenodd" d="M14.9313 8.55587C14.6097 8.55587 14.3479 8.29431 14.3479 7.97143C14.3479 7.6506 14.6096 7.38699 14.9313 7.38699C15.2534 7.38699 15.5152 7.6506 15.5152 7.97143C15.5151 8.29431 15.2534 8.55587 14.9313 8.55587ZM1.40176 7.15609V9.97605H0.63833C0.465029 9.2077 0.439108 8.30246 0.557421 7.15609H1.40176ZM2.70548 7.15609C2.7533 7.15609 2.79969 7.1418 2.83952 7.11523L4.22172 6.19567C4.53293 5.98724 4.9208 6.00767 5.20973 6.24471L6.17507 7.03554C6.33609 7.16837 6.35959 7.40541 6.22778 7.56685C6.09579 7.72829 5.85772 7.75076 5.69689 7.61998L4.81291 6.89452C4.73014 6.82707 4.61225 6.82097 4.52334 6.88024L3.38432 7.65265C3.27336 7.72825 3.24414 7.87741 3.31956 7.98981C3.39455 8.10017 3.54515 8.12878 3.65612 8.05318L4.64556 7.38495L5.14561 7.79366C5.16296 7.94078 5.22572 8.07565 5.3191 8.18191C5.08084 8.44905 5.08095 8.85458 5.3191 9.12599C5.08008 9.394 5.0802 9.80843 5.32501 10.0742C4.6711 10.3562 3.99389 10.3296 3.26745 9.99856C3.23577 9.98428 3.20166 9.97609 3.16672 9.97609H1.88665V7.15609H2.70548ZM7.46799 6.76579C7.46799 6.6391 7.3654 6.53693 7.2389 6.53693H6.33078C6.50784 6.68249 6.63828 6.7711 6.73131 6.99469H7.23849C7.36551 6.99465 7.46799 6.89255 7.46799 6.76579ZM7.23849 9.82689C7.3654 9.82689 7.46799 9.72267 7.46799 9.59803C7.46799 9.47134 7.3654 9.36713 7.23849 9.36713H5.85465C5.72834 9.36713 5.62519 9.47134 5.62519 9.59803C5.62519 9.72267 5.72838 9.82689 5.85465 9.82689H7.23849ZM7.46799 8.65395C7.46799 8.52726 7.3654 8.42305 7.23849 8.42305H5.85465C5.72834 8.42305 5.62519 8.52726 5.62519 8.65395C5.62519 8.78064 5.72838 8.88281 5.85465 8.88281H7.23849C7.3654 8.88281 7.46799 8.78064 7.46799 8.65395ZM6.60277 7.87336C6.69941 7.75686 6.75928 7.61998 6.78403 7.48101H7.23849C7.3654 7.48101 7.46799 7.58318 7.46799 7.70987C7.46799 7.83656 7.3654 7.93873 7.23849 7.93873H6.54331C6.56393 7.9183 6.58397 7.89788 6.60277 7.87336ZM15.3055 6.97017C14.796 3.1727 11.5427 0.322754 7.69624 0.322754C3.88596 0.322754 0.660234 3.11358 0.101297 6.8741C0.10069 6.87819 0.0996672 6.88228 0.0994398 6.88638L0.0957638 6.90885H0.096787C-0.0627957 8.3025 -0.0258085 9.37327 0.213471 10.2806C0.241666 10.3868 0.337734 10.4604 0.447862 10.4604H3.11457C3.55493 10.6545 3.98733 10.7526 4.41015 10.7526C4.93062 10.7526 5.43574 10.6054 5.92271 10.3112H7.23849C7.85666 10.3112 8.17703 9.57783 7.77408 9.12599C8.01245 8.85431 8.01256 8.44935 7.77408 8.18191C8.01245 7.91023 8.01275 7.50985 7.77408 7.23783C8.17923 6.7761 7.85173 6.05261 7.2389 6.05261H5.7396L5.51726 5.8687C5.06667 5.50088 4.43789 5.46817 3.953 5.79105L2.63188 6.67177H0.626658C1.25605 3.30621 4.24135 0.807035 7.6962 0.807035C11.2684 0.807035 14.2768 3.41247 14.8066 6.91086C14.2762 6.97217 13.8632 7.42375 13.8632 7.97143C13.8632 8.55997 14.3424 9.04016 14.9313 9.04016C15.5206 9.04016 16 8.55993 16 7.97143C16 7.51372 15.7107 7.12137 15.3055 6.97017ZM12.03 13.7422L11.2318 12.9575L13.2548 10.7587L14.1019 11.5373C13.7966 12.0441 12.9434 13.0576 12.03 13.7422ZM9.14382 10.5442C9.03653 10.021 9.07905 9.48158 9.21491 8.47004L9.27948 6.3285C9.28782 6.04693 9.61354 5.86404 9.86597 6.0547C9.96739 6.13129 10.0243 6.24035 10.0204 6.36734L9.96485 8.25346C9.96064 8.38909 10.0704 8.50278 10.2072 8.50278C10.3378 8.50278 10.4455 8.39857 10.4494 8.26779L10.5049 6.38167C10.5117 6.15281 10.4255 5.93006 10.2695 5.76452C10.2654 5.75228 10.2606 5.74205 10.2546 5.72977L9.10228 3.56781C8.94012 3.2649 9.22423 2.90261 9.56595 3.00584C9.66732 3.03649 9.75047 3.10391 9.7995 3.19793L11.3049 6.01995C11.7676 6.88842 11.7312 8.04908 11.6482 8.96251C11.5961 9.53262 11.8368 10.0456 12.3095 10.3704L12.7033 10.6402L10.8582 12.6469L10.7906 12.6734C9.86127 12.0727 9.38616 11.7273 9.14382 10.5442ZM1.84272 13.3846C1.52109 13.3846 1.25912 13.123 1.25912 12.8001C1.25912 12.4793 1.52109 12.2178 1.84272 12.2178C2.16458 12.2178 2.42633 12.4793 2.42633 12.8001C2.42633 13.123 2.16458 13.3846 1.84272 13.3846ZM13.4045 10.2377C13.3057 10.1457 13.1527 10.1518 13.0618 10.2519L13.0568 10.256L12.6022 9.94339C12.2887 9.72881 12.1285 9.38756 12.163 9.00954C12.2529 8.02456 12.2887 6.76583 11.7613 5.77676L10.2561 2.95271C9.87605 2.24271 8.81536 2.33848 8.579 3.11619C8.50791 3.35119 8.53178 3.59642 8.64604 3.813L9.5282 5.46616C9.10198 5.52358 8.77576 5.87943 8.76273 6.31421L8.70061 8.4149C8.57984 9.31404 8.50507 10.0027 8.63729 10.6484C8.93235 12.0891 9.56788 12.4998 10.6211 13.1803C10.68 13.2178 10.7385 13.2263 10.8046 13.217L11.6256 14.0242C8.87524 15.8274 5.2242 15.5248 2.80238 13.2702C3.14622 12.5765 2.6428 11.7335 1.84276 11.7335C1.25343 11.7335 0.774455 12.2117 0.774455 12.8002C0.774455 13.3907 1.25343 13.8689 1.84276 13.8689C2.08841 13.8689 2.31438 13.7872 2.49504 13.6462C3.91669 14.9581 5.75438 15.6773 7.69628 15.6773C9.30283 15.6773 10.8375 15.1869 12.1416 14.2592C12.1425 14.2592 12.1439 14.2592 12.1449 14.2571C13.2549 13.4827 14.3729 12.1381 14.6255 11.5863C14.669 11.4923 14.6463 11.3779 14.5691 11.3084L13.4045 10.2377Z" fill="black"/>
</svg>
