<svg width="16" height="16" viewBox="0 0 16 16" fill="none" xmlns="http://www.w3.org/2000/svg">
<path d="M7.99952 4.14744C9.14281 4.14744 10.073 3.21726 10.073 2.07396C10.073 0.930669 9.14299 0.000488281 7.99952 0.000488281C6.85604 0.000488281 5.92604 0.930669 5.92604 2.07396C5.92604 3.21726 6.85622 4.14744 7.99952 4.14744ZM7.99952 3.70293C7.54862 3.70293 7.14014 3.51874 6.84487 3.22187C7.10447 2.84302 7.53389 2.61269 7.99969 2.61269C8.46532 2.61269 8.89474 2.84302 9.15435 3.22187C8.85907 3.51874 8.45041 3.70293 7.99952 3.70293ZM7.99952 0.444817C8.89776 0.444817 9.62866 1.17555 9.62866 2.07396C9.62866 2.35469 9.55733 2.61926 9.4317 2.85012C9.08514 2.423 8.56238 2.16837 7.99969 2.16837C7.43701 2.16837 6.91425 2.42318 6.56769 2.8503C6.44206 2.61944 6.37055 2.35504 6.37055 2.07414C6.37055 1.17572 7.10128 0.444817 7.99952 0.444817ZM7.99969 11.8526C6.8564 11.8526 5.92622 12.7828 5.92622 13.926C5.92622 15.0693 6.8564 15.9995 7.99969 15.9995C9.14299 15.9995 10.0732 15.0693 10.0732 13.926C10.0732 12.7828 9.14299 11.8526 7.99969 11.8526ZM7.99969 15.5552C7.5488 15.5552 7.14032 15.371 6.84504 15.0741C7.10465 14.6953 7.53407 14.465 7.99969 14.465C8.46549 14.465 8.89474 14.6953 9.15435 15.0741C8.85907 15.371 8.45041 15.5552 7.99969 15.5552ZM9.4317 14.7022C9.08514 14.2751 8.56238 14.0204 7.99969 14.0204C7.43701 14.0204 6.91425 14.2753 6.56769 14.7024C6.44206 14.4715 6.37055 14.2071 6.37055 13.9262C6.37055 13.028 7.10128 12.2971 7.99969 12.2971C8.89811 12.2971 9.62884 13.0278 9.62884 13.9262C9.62866 14.2069 9.55733 14.4713 9.4317 14.7022ZM7.99969 2.02073C8.37429 2.02073 8.67896 1.71605 8.67896 1.34146C8.67896 0.966868 8.37429 0.662013 7.99969 0.662013C7.6251 0.662013 7.32042 0.966691 7.32042 1.34128C7.32042 1.71587 7.6251 2.02073 7.99969 2.02073ZM7.99969 1.10634C8.12923 1.10634 8.23463 1.21175 8.23463 1.34128C8.23463 1.47082 8.12923 1.57622 7.99969 1.57622C7.87016 1.57622 7.76475 1.47082 7.76475 1.34128C7.76475 1.21175 7.87016 1.10634 7.99969 1.10634ZM7.99969 12.5141C7.6251 12.5141 7.32042 12.8188 7.32042 13.1934C7.32042 13.568 7.6251 13.8726 7.99969 13.8726C8.37429 13.8726 8.67896 13.568 8.67896 13.1934C8.67896 12.8188 8.37429 12.5141 7.99969 12.5141ZM7.99969 13.4283C7.87016 13.4283 7.76475 13.3229 7.76475 13.1934C7.76475 13.0638 7.87016 12.9584 7.99969 12.9584C8.12923 12.9584 8.23463 13.0638 8.23463 13.1934C8.23463 13.3229 8.12923 13.4283 7.99969 13.4283ZM15.7213 6.96318C15.1496 5.97302 13.8791 5.6325 12.8889 6.20423C11.8988 6.77597 11.5582 8.0465 12.13 9.03665C12.407 9.51629 12.854 9.85948 13.389 10.0027C13.5676 10.0506 13.7488 10.0742 13.9289 10.0742C14.2883 10.0742 14.6428 9.97997 14.9624 9.79542C15.442 9.51842 15.785 9.07143 15.9284 8.53643C16.0718 8.0016 15.9983 7.44282 15.7213 6.96318ZM14.7402 9.41071C14.3633 9.62826 13.9243 9.68611 13.5041 9.57343C13.2218 9.49784 12.9709 9.35109 12.7704 9.1488C13.03 8.76924 13.4596 8.53856 13.9257 8.53856C14.3919 8.53856 14.8215 8.76924 15.0811 9.14862C14.9807 9.24941 14.8666 9.33778 14.7402 9.41071ZM15.4992 8.42162C15.4656 8.54672 15.4179 8.66543 15.3579 8.77652C15.0114 8.34922 14.4884 8.09423 13.9256 8.09423C13.363 8.09423 12.8403 8.34887 12.4937 8.77581C12.075 8.00373 12.3459 7.03079 13.1111 6.58912C13.889 6.14 14.8873 6.40759 15.3364 7.18534C15.554 7.56224 15.6118 8.00125 15.4992 8.42162ZM13.9257 6.58805C13.5511 6.58805 13.2465 6.89273 13.2465 7.26732C13.2465 7.64192 13.5511 7.94659 13.9257 7.94659C14.3003 7.94659 14.605 7.64192 14.605 7.26732C14.605 6.89273 14.3003 6.58805 13.9257 6.58805ZM13.9257 7.50226C13.7962 7.50226 13.6908 7.39686 13.6908 7.26732C13.6908 7.13779 13.7962 7.03238 13.9257 7.03238C14.0553 7.03238 14.1607 7.13779 14.1607 7.26732C14.1607 7.39686 14.0553 7.50226 13.9257 7.50226ZM4.14695 8.00001C4.14695 6.85671 3.21677 5.92653 2.07348 5.92653C0.93018 5.92653 0 6.85671 0 8.00001C0 9.1433 0.93018 10.0735 2.07348 10.0735C3.21695 10.0735 4.14695 9.1433 4.14695 8.00001ZM2.07348 9.62915C1.62258 9.62915 1.2141 9.44496 0.918824 9.14809C1.17843 8.76924 1.60785 8.53891 2.07348 8.53891C2.5391 8.53891 2.96852 8.76924 3.22813 9.14809C2.93303 9.44496 2.52437 9.62915 2.07348 9.62915ZM2.07365 8.09423C1.51097 8.09423 0.988206 8.34904 0.641651 8.77616C0.516018 8.5453 0.444506 8.28073 0.444506 8.00001C0.444506 7.10177 1.17524 6.37086 2.07365 6.37086C2.97207 6.37086 3.7028 7.10159 3.7028 8.00001C3.7028 8.28073 3.63147 8.5453 3.50583 8.77616C3.15892 8.34904 2.63616 8.09423 2.07365 8.09423ZM2.07365 6.58805C1.69906 6.58805 1.39438 6.89273 1.39438 7.26732C1.39438 7.64192 1.69906 7.94659 2.07365 7.94659C2.44825 7.94659 2.75292 7.64192 2.75292 7.26732C2.75292 6.89273 2.44825 6.58805 2.07365 6.58805ZM2.07365 7.50226C1.94412 7.50226 1.83871 7.39686 1.83871 7.26732C1.83871 7.13779 1.94412 7.03238 2.07365 7.03238C2.20319 7.03238 2.30859 7.13779 2.30859 7.26732C2.30859 7.39686 2.20319 7.50226 2.07365 7.50226ZM13.6494 10.6466C13.0309 11.9647 11.9644 13.0312 10.6461 13.6496C10.6156 13.664 10.5835 13.6707 10.5519 13.6707C10.4683 13.6707 10.3885 13.6233 10.3505 13.5428C10.2984 13.4317 10.3463 13.2993 10.4573 13.2471C11.6817 12.6727 12.6724 11.682 13.247 10.4578C13.2992 10.3467 13.4315 10.299 13.5426 10.351C13.6539 10.4034 13.7016 10.5356 13.6494 10.6466ZM10.3507 2.4569C10.4029 2.34581 10.5351 2.2979 10.6463 2.35007C11.9644 2.96865 13.031 4.03511 13.6494 5.3532C13.7016 5.46428 13.6537 5.59665 13.5426 5.64882C13.5121 5.6632 13.48 5.66994 13.4484 5.66994C13.365 5.66994 13.285 5.62256 13.2472 5.542C12.6726 4.31761 11.6819 3.32692 10.4575 2.75252C10.3464 2.70035 10.2987 2.56816 10.3507 2.4569ZM2.35012 5.35337C2.96852 4.03547 4.03498 2.96883 5.35289 2.35043C5.46397 2.29826 5.59634 2.34599 5.64851 2.45725C5.70068 2.56833 5.65277 2.70071 5.54169 2.75288C4.31748 3.32745 3.32679 4.31797 2.75239 5.54236C2.71459 5.62292 2.63456 5.6703 2.55099 5.6703C2.5194 5.6703 2.48728 5.66355 2.45676 5.64918C2.34568 5.59683 2.29795 5.46446 2.35012 5.35337ZM5.64851 13.5428C5.61072 13.6233 5.53069 13.6707 5.44729 13.6707C5.4157 13.6707 5.38358 13.664 5.35306 13.6496C4.03516 13.0312 2.9687 11.9647 2.35029 10.6466C2.29812 10.5356 2.34604 10.4032 2.45712 10.351C2.5682 10.2988 2.70058 10.3467 2.75275 10.4578C3.32714 11.682 4.31783 12.6727 5.54204 13.2471C5.65277 13.2993 5.70068 13.4317 5.64851 13.5428ZM10.537 8.45409L10.7689 8.22217H8.22204V10.7691L8.45396 10.5372C8.54073 10.4504 8.68145 10.4504 8.76822 10.5372C8.85499 10.6239 8.85499 10.7646 8.76822 10.8514L8.15709 11.4625C8.11539 11.5042 8.05896 11.5277 8.00005 11.5277C7.94114 11.5277 7.88453 11.5042 7.84301 11.4625L7.23188 10.8514C7.14511 10.7646 7.14511 10.6239 7.23188 10.5372C7.31865 10.4504 7.45937 10.4504 7.54614 10.5372L7.77806 10.7691V8.22217H5.23062L5.46255 8.45409C5.54932 8.54086 5.54932 8.68158 5.46255 8.76835C5.41925 8.81183 5.36229 8.83348 5.30551 8.83348C5.24872 8.83348 5.19176 8.81183 5.14847 8.76835L4.53734 8.15722C4.45056 8.07045 4.45056 7.92974 4.53734 7.84296L5.14847 7.23183C5.23524 7.14506 5.37595 7.14506 5.46273 7.23183C5.5495 7.31861 5.5495 7.45932 5.46273 7.54609L5.2308 7.77802H7.77771V5.23093L7.54578 5.46286C7.45901 5.54963 7.3183 5.54963 7.23152 5.46286C7.14475 5.37609 7.14475 5.23537 7.23152 5.1486L7.84265 4.53747C7.88435 4.49577 7.94078 4.47235 7.99969 4.47235C8.05861 4.47235 8.11521 4.49577 8.15674 4.53747L8.76787 5.1486C8.85464 5.23537 8.85464 5.37609 8.76787 5.46286C8.72457 5.50633 8.66761 5.52798 8.61082 5.52798C8.55404 5.52798 8.49708 5.50633 8.45378 5.46286L8.22186 5.23093V7.77784H10.7688L10.5368 7.54592C10.4501 7.45915 10.4501 7.31843 10.5368 7.23166C10.6236 7.14488 10.7643 7.14488 10.8511 7.23166L11.4622 7.84279C11.549 7.92956 11.549 8.07028 11.4622 8.15705L10.8511 8.76818C10.8078 8.81165 10.7508 8.8333 10.6941 8.8333C10.6373 8.8333 10.5803 8.81165 10.537 8.76818C10.4502 8.68158 10.4502 8.54086 10.537 8.45409Z" fill="black"/>
</svg>
