<svg width="16" height="16" viewBox="0 0 16 16" fill="none" xmlns="http://www.w3.org/2000/svg">
<path d="M10.9497 6.49919C9.72907 5.27785 7.74281 5.27421 6.51942 6.497C5.2959 7.71979 5.2959 9.70667 6.51942 10.9295C7.74076 12.1508 9.72984 12.1516 10.9519 10.9295C12.1733 9.7089 12.1718 7.72108 10.9497 6.49919ZM10.7215 10.6991C9.62626 11.7936 7.84497 11.7936 6.75056 10.6991C5.65464 9.60319 5.65464 7.82412 6.75056 6.72822C7.84357 5.63449 9.62424 5.63449 10.7194 6.73041C11.8146 7.82487 11.8153 9.6054 10.7216 10.6992L10.7215 10.6991Z" fill="black"/>
<path d="M15.8918 14.1189C15.0715 12.9785 14.082 12.0006 12.9809 11.2081C12.7505 11.044 12.4385 11.0702 12.235 11.2686L12.114 11.1475C13.1552 9.69726 13.1377 7.80869 12.1956 6.40592L12.6732 3.85609C12.7863 3.2735 12.3364 2.72518 11.7363 2.72518H11.6903V1.18812C11.6903 0.544278 11.1661 0.0192871 10.5215 0.0192871H7.46994C7.18046 0.0192871 6.92526 0.200847 6.83631 0.46698L6.67298 0.921972C6.60736 1.10864 6.4309 1.23405 6.2333 1.23405L1.61488 1.23333C1.17373 1.23333 0.814986 1.59062 0.814986 2.02956V5.17222C0.246241 5.25534 -0.0928136 5.78763 0.022395 6.31408L0.766136 9.74401C0.850717 10.1385 1.19707 10.4054 1.58206 10.4054H4.92744C5.94315 12.7219 8.90131 13.6968 11.1668 12.0948L11.2879 12.2159C11.0903 12.42 11.0648 12.7321 11.2296 12.964C11.9813 14.0125 12.9555 15.0216 14.1366 15.8748C14.3642 16.0374 14.6872 16.0104 14.8891 15.8092L15.8261 14.8722C16.0303 14.6688 16.058 14.3522 15.8918 14.1189ZM1.61501 1.55999H6.23343C6.56958 1.55999 6.86999 1.34708 6.98081 1.03063L7.14488 0.573457C7.19081 0.437105 7.32133 0.345224 7.47008 0.345224H10.5217C10.9861 0.345224 11.3638 0.722918 11.3638 1.18739V2.72445H10.5814C10.569 2.40436 10.308 2.14695 9.98645 2.14695L2.51917 2.14768C2.1896 2.14768 1.922 2.41674 1.922 2.74851V5.14602L1.1418 5.15477V2.0304C1.1418 1.77082 1.35396 1.55999 1.61501 1.55999ZM10.257 2.72518H6.08989C5.77926 2.72518 5.48687 2.87684 5.30678 3.13059L4.26262 4.6188C4.03732 4.9389 3.66982 5.13067 3.27827 5.13067L2.24871 5.14161V2.74784C2.24871 2.59691 2.37048 2.47367 2.51996 2.47367H9.98798C10.1287 2.47367 10.2453 2.58445 10.257 2.72518ZM1.08563 9.6754L0.341166 6.24472C0.300333 6.05805 0.344811 5.86702 0.463663 5.71827C0.686782 5.43973 1.01126 5.48567 0.978443 5.48276C1.35907 5.47838 2.13561 5.4689 2.08676 5.46963C2.34999 5.46672 3.31319 5.45651 3.27965 5.45651C3.77621 5.45651 4.24287 5.21297 4.52941 4.8061L5.57357 3.31862C5.69169 3.15164 5.88492 3.05102 6.08981 3.05102H11.7364C12.1301 3.05102 12.4269 3.41122 12.3525 3.79476L12.0054 5.64463C11.1086 4.69307 9.93906 4.22278 8.73303 4.22278C5.70853 4.22278 3.53558 7.15974 4.45938 10.0786H1.58215C1.36121 10.0786 1.14033 9.93061 1.08563 9.6754ZM4.96114 9.41292C4.52948 7.04826 6.34508 4.87252 8.73454 4.87252C11.8501 4.87252 13.6658 8.41184 11.8649 10.9368C9.90921 13.6909 5.61091 12.767 4.96132 9.4129L4.96114 9.41292ZM11.5242 12.4397L12.459 11.5042C12.5487 11.4145 12.6894 11.4006 12.7907 11.4735C12.8957 11.5494 12.9978 11.6252 13.1028 11.7069L11.7269 13.0828C11.6489 12.9814 11.5701 12.8779 11.4958 12.7736C11.4229 12.6723 11.4353 12.5286 11.5242 12.4397ZM12.0011 13.4262L13.4463 11.981C14.3307 12.7357 14.5706 13.0106 15.1189 13.6544L13.6701 15.1033C13.0664 14.6089 12.494 14.0234 12.0011 13.4262ZM15.5958 14.6417L14.6589 15.5787C14.5699 15.6676 14.427 15.68 14.3271 15.6093C14.2214 15.5327 14.1186 15.4562 14.0151 15.376L15.3932 13.9979C15.4734 14.1007 15.5499 14.2035 15.6258 14.3092C15.6994 14.4113 15.6863 14.5506 15.5958 14.6417Z" fill="black"/>
<path d="M9.46067 9.20288H9.10776C9.04141 9.20288 8.98672 9.25684 8.98672 9.32392V10.433C8.98672 10.4993 9.04068 10.554 9.10776 10.554H9.46067C9.52702 10.554 9.58171 10.5 9.58171 10.433V9.32392C9.58171 9.25684 9.52775 9.20288 9.46067 9.20288Z" fill="black"/>
<path d="M8.36624 8.85376H8.02427C7.95792 8.85376 7.90323 8.90772 7.90323 8.9748V10.4331C7.90323 10.4995 7.95719 10.5541 8.02427 10.5541H8.36624C8.43259 10.5541 8.48728 10.5002 8.48728 10.4331V8.9748C8.48728 8.90772 8.43332 8.85376 8.36624 8.85376Z" fill="black"/>
<path d="M10.5267 8.14282H10.1847C10.1184 8.14282 10.0637 8.19678 10.0637 8.26386V10.4338C10.0637 10.5002 10.1176 10.5549 10.1847 10.5549H10.5267C10.5931 10.5549 10.6477 10.5009 10.6477 10.4338V8.26386C10.6477 8.19678 10.5931 8.14282 10.5267 8.14282Z" fill="black"/>
<path d="M7.28564 9.70752H6.94367C6.87732 9.70752 6.82263 9.76148 6.82263 9.82856V10.433C6.82263 10.4994 6.87659 10.5541 6.94367 10.5541H7.28564C7.35199 10.5541 7.40668 10.5001 7.40668 10.433V9.82856C7.40668 9.76148 7.35272 9.70752 7.28564 9.70752Z" fill="black"/>
<path d="M10.3598 6.87478C10.1498 6.87478 9.98722 7.08041 10.0682 7.29768L9.40974 7.96851C9.25954 7.88976 9.11151 7.94007 9.02329 8.05455L8.51215 7.88976C8.50195 7.72498 8.36632 7.59446 8.20226 7.59446C7.97768 7.59446 7.82236 7.82488 7.91644 8.0356L7.23833 8.74435C7.02615 8.64883 6.79791 8.80632 6.79791 9.02944C6.79791 9.2037 6.93791 9.34297 7.11145 9.34297C7.33384 9.34297 7.48915 9.11329 7.39947 8.90547L8.07831 8.19528C8.20154 8.24777 8.34373 8.21934 8.43924 8.10486L8.96059 8.27257C8.97664 8.43152 9.10497 8.55547 9.26829 8.55547C9.46735 8.55547 9.63943 8.36005 9.56141 8.13912L10.2228 7.46465C10.4451 7.57475 10.6748 7.40486 10.6748 7.18611C10.6734 7.01403 10.5304 6.87478 10.3598 6.87478Z" fill="black"/>
<path d="M1.80894 8.47676C1.75717 8.2675 1.44071 8.34479 1.49176 8.55478L1.56613 8.85884C1.6179 9.07029 1.93436 8.99081 1.88331 8.78082L1.80894 8.47676Z" fill="black"/>
<path d="M1.67848 7.94376L1.27525 6.27182C1.22494 6.06401 0.907023 6.13765 0.958075 6.34838L1.36131 8.02032C1.41235 8.23105 1.72881 8.15449 1.67848 7.94376Z" fill="black"/>
</svg>
