<svg width="1440" height="528" viewBox="0 0 1440 528" fill="none" xmlns="http://www.w3.org/2000/svg">
<g opacity="0.3">
<circle cx="2.51493" cy="2.51493" r="2.51493" fill="black" fill-opacity="0.2"/>
<circle cx="49.7957" cy="2.51493" r="2.51493" fill="black" fill-opacity="0.2"/>
<circle cx="97.0765" cy="2.51493" r="2.51493" fill="black" fill-opacity="0.2"/>
<circle cx="144.357" cy="2.51493" r="2.51493" fill="black" fill-opacity="0.2"/>
<circle cx="191.638" cy="2.51493" r="2.51493" fill="black" fill-opacity="0.2"/>
<circle cx="238.919" cy="2.51493" r="2.51493" fill="black" fill-opacity="0.2"/>
<circle cx="286.199" cy="2.51493" r="2.51493" fill="black" fill-opacity="0.2"/>
<circle cx="333.48" cy="2.51493" r="2.51493" fill="black" fill-opacity="0.2"/>
<circle cx="380.761" cy="2.51493" r="2.51493" fill="black" fill-opacity="0.2"/>
<circle cx="428.042" cy="2.51493" r="2.51493" fill="black" fill-opacity="0.2"/>
<circle cx="475.323" cy="2.51493" r="2.51493" fill="black" fill-opacity="0.2"/>
<circle cx="522.603" cy="2.51493" r="2.51493" fill="black" fill-opacity="0.2"/>
<circle cx="569.884" cy="2.51493" r="2.51493" fill="black" fill-opacity="0.2"/>
<circle cx="617.165" cy="2.51493" r="2.51493" fill="black" fill-opacity="0.2"/>
<circle cx="664.446" cy="2.51493" r="2.51493" fill="black" fill-opacity="0.2"/>
<circle cx="711.726" cy="2.51493" r="2.51493" fill="black" fill-opacity="0.2"/>
<circle cx="759.007" cy="2.51493" r="2.51493" fill="black" fill-opacity="0.2"/>
<circle cx="806.288" cy="2.51493" r="2.51493" fill="black" fill-opacity="0.2"/>
<circle cx="853.569" cy="2.51493" r="2.51493" fill="black" fill-opacity="0.2"/>
<circle cx="900.849" cy="2.51493" r="2.51493" fill="black" fill-opacity="0.2"/>
<circle cx="948.13" cy="2.51493" r="2.51493" fill="black" fill-opacity="0.2"/>
<circle cx="995.411" cy="2.51493" r="2.51493" fill="black" fill-opacity="0.2"/>
<circle cx="1042.69" cy="2.51493" r="2.51493" fill="black" fill-opacity="0.2"/>
<circle cx="1089.97" cy="2.51493" r="2.51493" fill="black" fill-opacity="0.2"/>
<circle cx="1137.25" cy="2.51493" r="2.51493" fill="black" fill-opacity="0.2"/>
<circle cx="1184.53" cy="2.51493" r="2.51493" fill="black" fill-opacity="0.2"/>
<circle cx="1231.81" cy="2.51493" r="2.51493" fill="black" fill-opacity="0.2"/>
<circle cx="1279.1" cy="2.51493" r="2.51493" fill="black" fill-opacity="0.2"/>
<circle cx="1326.38" cy="2.51493" r="2.51493" fill="black" fill-opacity="0.2"/>
<circle cx="1373.66" cy="2.51493" r="2.51493" fill="black" fill-opacity="0.2"/>
<circle cx="1420.94" cy="2.51493" r="2.51493" fill="black" fill-opacity="0.2"/>
<circle cx="26.5149" cy="147.515" r="2.51493" fill="black" fill-opacity="0.2"/>
<circle cx="73.7957" cy="147.515" r="2.51493" fill="black" fill-opacity="0.2"/>
<circle cx="121.076" cy="147.515" r="2.51493" fill="black" fill-opacity="0.2"/>
<circle cx="168.357" cy="147.515" r="2.51493" fill="black" fill-opacity="0.2"/>
<circle cx="215.638" cy="147.515" r="2.51493" fill="black" fill-opacity="0.2"/>
<circle cx="262.919" cy="147.515" r="2.51493" fill="black" fill-opacity="0.2"/>
<circle cx="310.199" cy="147.515" r="2.51493" fill="black" fill-opacity="0.2"/>
<circle cx="357.48" cy="147.515" r="2.51493" fill="black" fill-opacity="0.2"/>
<circle cx="404.761" cy="147.515" r="2.51493" fill="black" fill-opacity="0.2"/>
<circle cx="452.042" cy="147.515" r="2.51493" fill="black" fill-opacity="0.2"/>
<circle cx="499.323" cy="147.515" r="2.51493" fill="black" fill-opacity="0.2"/>
<circle cx="546.603" cy="147.515" r="2.51493" fill="black" fill-opacity="0.2"/>
<circle cx="593.884" cy="147.515" r="2.51493" fill="black" fill-opacity="0.2"/>
<circle cx="641.165" cy="147.515" r="2.51493" fill="black" fill-opacity="0.2"/>
<circle cx="688.446" cy="147.515" r="2.51493" fill="black" fill-opacity="0.2"/>
<circle cx="735.726" cy="147.515" r="2.51493" fill="black" fill-opacity="0.2"/>
<circle cx="783.007" cy="147.515" r="2.51493" fill="black" fill-opacity="0.2"/>
<circle cx="830.288" cy="147.515" r="2.51493" fill="black" fill-opacity="0.2"/>
<circle cx="877.569" cy="147.515" r="2.51493" fill="black" fill-opacity="0.2"/>
<circle cx="924.849" cy="147.515" r="2.51493" fill="black" fill-opacity="0.2"/>
<circle cx="972.13" cy="147.515" r="2.51493" fill="black" fill-opacity="0.2"/>
<circle cx="1019.41" cy="147.515" r="2.51493" fill="black" fill-opacity="0.2"/>
<circle cx="1066.69" cy="147.515" r="2.51493" fill="black" fill-opacity="0.2"/>
<circle cx="1113.97" cy="147.515" r="2.51493" fill="black" fill-opacity="0.2"/>
<circle cx="1161.25" cy="147.515" r="2.51493" fill="black" fill-opacity="0.2"/>
<circle cx="1208.53" cy="147.515" r="2.51493" fill="black" fill-opacity="0.2"/>
<circle cx="1255.81" cy="147.515" r="2.51493" fill="black" fill-opacity="0.2"/>
<circle cx="1303.1" cy="147.515" r="2.51493" fill="black" fill-opacity="0.2"/>
<circle cx="1350.38" cy="147.515" r="2.51493" fill="black" fill-opacity="0.2"/>
<circle cx="1397.66" cy="147.515" r="2.51493" fill="black" fill-opacity="0.2"/>
<circle cx="2.51493" cy="350.515" r="2.51493" fill="black" fill-opacity="0.2"/>
<circle cx="49.7957" cy="350.515" r="2.51493" fill="black" fill-opacity="0.2"/>
<circle cx="97.0765" cy="350.515" r="2.51493" fill="black" fill-opacity="0.2"/>
<circle cx="144.357" cy="350.515" r="2.51493" fill="black" fill-opacity="0.2"/>
<circle cx="191.638" cy="350.515" r="2.51493" fill="black" fill-opacity="0.2"/>
<circle cx="238.919" cy="350.515" r="2.51493" fill="black" fill-opacity="0.2"/>
<circle cx="286.199" cy="350.515" r="2.51493" fill="black" fill-opacity="0.2"/>
<circle cx="333.48" cy="350.515" r="2.51493" fill="black" fill-opacity="0.2"/>
<circle cx="380.761" cy="350.515" r="2.51493" fill="black" fill-opacity="0.2"/>
<circle cx="428.042" cy="350.515" r="2.51493" fill="black" fill-opacity="0.2"/>
<circle cx="475.323" cy="350.515" r="2.51493" fill="black" fill-opacity="0.2"/>
<circle cx="522.603" cy="350.515" r="2.51493" fill="black" fill-opacity="0.2"/>
<circle cx="569.884" cy="350.515" r="2.51493" fill="black" fill-opacity="0.2"/>
<circle cx="617.165" cy="350.515" r="2.51493" fill="black" fill-opacity="0.2"/>
<circle cx="664.446" cy="350.515" r="2.51493" fill="black" fill-opacity="0.2"/>
<circle cx="711.726" cy="350.515" r="2.51493" fill="black" fill-opacity="0.2"/>
<circle cx="759.007" cy="350.515" r="2.51493" fill="black" fill-opacity="0.2"/>
<circle cx="806.288" cy="350.515" r="2.51493" fill="black" fill-opacity="0.2"/>
<circle cx="853.569" cy="350.515" r="2.51493" fill="black" fill-opacity="0.2"/>
<circle cx="900.849" cy="350.515" r="2.51493" fill="black" fill-opacity="0.2"/>
<circle cx="948.13" cy="350.515" r="2.51493" fill="black" fill-opacity="0.2"/>
<circle cx="995.411" cy="350.515" r="2.51493" fill="black" fill-opacity="0.2"/>
<circle cx="1042.69" cy="350.515" r="2.51493" fill="black" fill-opacity="0.2"/>
<circle cx="1089.97" cy="350.515" r="2.51493" fill="black" fill-opacity="0.2"/>
<circle cx="1137.25" cy="350.515" r="2.51493" fill="black" fill-opacity="0.2"/>
<circle cx="1184.53" cy="350.515" r="2.51493" fill="black" fill-opacity="0.2"/>
<circle cx="1231.81" cy="350.515" r="2.51493" fill="black" fill-opacity="0.2"/>
<circle cx="1279.1" cy="350.515" r="2.51493" fill="black" fill-opacity="0.2"/>
<circle cx="1326.38" cy="350.515" r="2.51493" fill="black" fill-opacity="0.2"/>
<circle cx="1373.66" cy="350.515" r="2.51493" fill="black" fill-opacity="0.2"/>
<circle cx="1420.94" cy="350.515" r="2.51493" fill="black" fill-opacity="0.2"/>
<circle cx="26.5149" cy="89.5149" r="2.51493" fill="black" fill-opacity="0.2"/>
<circle cx="73.7957" cy="89.5152" r="2.51493" fill="black" fill-opacity="0.2"/>
<circle cx="121.076" cy="89.5152" r="2.51493" fill="black" fill-opacity="0.2"/>
<circle cx="168.357" cy="89.5152" r="2.51493" fill="black" fill-opacity="0.2"/>
<circle cx="215.638" cy="89.5152" r="2.51493" fill="black" fill-opacity="0.2"/>
<circle cx="262.919" cy="89.5152" r="2.51493" fill="black" fill-opacity="0.2"/>
<circle cx="310.199" cy="89.5152" r="2.51493" fill="black" fill-opacity="0.2"/>
<circle cx="357.48" cy="89.5152" r="2.51493" fill="black" fill-opacity="0.2"/>
<circle cx="404.761" cy="89.5152" r="2.51493" fill="black" fill-opacity="0.2"/>
<circle cx="452.042" cy="89.5152" r="2.51493" fill="black" fill-opacity="0.2"/>
<circle cx="499.323" cy="89.5152" r="2.51493" fill="black" fill-opacity="0.2"/>
<circle cx="546.603" cy="89.5152" r="2.51493" fill="black" fill-opacity="0.2"/>
<circle cx="593.884" cy="89.5152" r="2.51493" fill="black" fill-opacity="0.2"/>
<circle cx="641.165" cy="89.5152" r="2.51493" fill="black" fill-opacity="0.2"/>
<circle cx="688.446" cy="89.5152" r="2.51493" fill="black" fill-opacity="0.2"/>
<circle cx="735.726" cy="89.5152" r="2.51493" fill="black" fill-opacity="0.2"/>
<circle cx="783.007" cy="89.5152" r="2.51493" fill="black" fill-opacity="0.2"/>
<circle cx="830.288" cy="89.5152" r="2.51493" fill="black" fill-opacity="0.2"/>
<circle cx="877.569" cy="89.5152" r="2.51493" fill="black" fill-opacity="0.2"/>
<circle cx="924.849" cy="89.5152" r="2.51493" fill="black" fill-opacity="0.2"/>
<circle cx="972.13" cy="89.5152" r="2.51493" fill="black" fill-opacity="0.2"/>
<circle cx="1019.41" cy="89.5152" r="2.51493" fill="black" fill-opacity="0.2"/>
<circle cx="1066.69" cy="89.5152" r="2.51493" fill="black" fill-opacity="0.2"/>
<circle cx="1113.97" cy="89.5152" r="2.51493" fill="black" fill-opacity="0.2"/>
<circle cx="1161.25" cy="89.5152" r="2.51493" fill="black" fill-opacity="0.2"/>
<circle cx="1208.53" cy="89.5152" r="2.51493" fill="black" fill-opacity="0.2"/>
<circle cx="1255.81" cy="89.5152" r="2.51493" fill="black" fill-opacity="0.2"/>
<circle cx="1303.1" cy="89.5152" r="2.51493" fill="black" fill-opacity="0.2"/>
<circle cx="1350.38" cy="89.5152" r="2.51493" fill="black" fill-opacity="0.2"/>
<circle cx="1397.66" cy="89.5152" r="2.51493" fill="black" fill-opacity="0.2"/>
<circle cx="26.5149" cy="263.515" r="2.51493" fill="black" fill-opacity="0.2"/>
<circle cx="73.7957" cy="263.515" r="2.51493" fill="black" fill-opacity="0.2"/>
<circle cx="121.076" cy="263.515" r="2.51493" fill="black" fill-opacity="0.2"/>
<circle cx="168.357" cy="263.515" r="2.51493" fill="black" fill-opacity="0.2"/>
<circle cx="215.638" cy="263.515" r="2.51493" fill="black" fill-opacity="0.2"/>
<circle cx="262.919" cy="263.515" r="2.51493" fill="black" fill-opacity="0.2"/>
<circle cx="310.199" cy="263.515" r="2.51493" fill="black" fill-opacity="0.2"/>
<circle cx="357.48" cy="263.515" r="2.51493" fill="black" fill-opacity="0.2"/>
<circle cx="404.761" cy="263.515" r="2.51493" fill="black" fill-opacity="0.2"/>
<circle cx="452.042" cy="263.515" r="2.51493" fill="black" fill-opacity="0.2"/>
<circle cx="499.323" cy="263.515" r="2.51493" fill="black" fill-opacity="0.2"/>
<circle cx="546.603" cy="263.515" r="2.51493" fill="black" fill-opacity="0.2"/>
<circle cx="593.884" cy="263.515" r="2.51493" fill="black" fill-opacity="0.2"/>
<circle cx="641.165" cy="263.515" r="2.51493" fill="black" fill-opacity="0.2"/>
<circle cx="688.446" cy="263.515" r="2.51493" fill="black" fill-opacity="0.2"/>
<circle cx="735.726" cy="263.515" r="2.51493" fill="black" fill-opacity="0.2"/>
<circle cx="783.007" cy="263.515" r="2.51493" fill="black" fill-opacity="0.2"/>
<circle cx="830.288" cy="263.515" r="2.51493" fill="black" fill-opacity="0.2"/>
<circle cx="877.569" cy="263.515" r="2.51493" fill="black" fill-opacity="0.2"/>
<circle cx="924.849" cy="263.515" r="2.51493" fill="black" fill-opacity="0.2"/>
<circle cx="972.13" cy="263.515" r="2.51493" fill="black" fill-opacity="0.2"/>
<circle cx="1019.41" cy="263.515" r="2.51493" fill="black" fill-opacity="0.2"/>
<circle cx="1066.69" cy="263.515" r="2.51493" fill="black" fill-opacity="0.2"/>
<circle cx="1113.97" cy="263.515" r="2.51493" fill="black" fill-opacity="0.2"/>
<circle cx="1161.25" cy="263.515" r="2.51493" fill="black" fill-opacity="0.2"/>
<circle cx="1208.53" cy="263.515" r="2.51493" fill="black" fill-opacity="0.2"/>
<circle cx="1255.81" cy="263.515" r="2.51493" fill="black" fill-opacity="0.2"/>
<circle cx="1303.1" cy="263.515" r="2.51493" fill="black" fill-opacity="0.2"/>
<circle cx="1350.38" cy="263.515" r="2.51493" fill="black" fill-opacity="0.2"/>
<circle cx="1397.66" cy="263.515" r="2.51493" fill="black" fill-opacity="0.2"/>
<circle cx="2.51493" cy="466.515" r="2.51493" fill="black" fill-opacity="0.1"/>
<circle cx="49.7957" cy="466.515" r="2.51493" fill="black" fill-opacity="0.1"/>
<circle cx="97.0765" cy="466.515" r="2.51493" fill="black" fill-opacity="0.1"/>
<circle cx="144.357" cy="466.515" r="2.51493" fill="black" fill-opacity="0.1"/>
<circle cx="191.638" cy="466.515" r="2.51493" fill="black" fill-opacity="0.1"/>
<circle cx="238.919" cy="466.515" r="2.51493" fill="black" fill-opacity="0.1"/>
<circle cx="286.199" cy="466.515" r="2.51493" fill="black" fill-opacity="0.1"/>
<circle cx="333.48" cy="466.515" r="2.51493" fill="black" fill-opacity="0.1"/>
<circle cx="380.761" cy="466.515" r="2.51493" fill="black" fill-opacity="0.1"/>
<circle cx="428.042" cy="466.515" r="2.51493" fill="black" fill-opacity="0.1"/>
<circle cx="475.323" cy="466.515" r="2.51493" fill="black" fill-opacity="0.1"/>
<circle cx="522.603" cy="466.515" r="2.51493" fill="black" fill-opacity="0.1"/>
<circle cx="569.884" cy="466.515" r="2.51493" fill="black" fill-opacity="0.1"/>
<circle cx="617.165" cy="466.515" r="2.51493" fill="black" fill-opacity="0.1"/>
<circle cx="664.446" cy="466.515" r="2.51493" fill="black" fill-opacity="0.1"/>
<circle cx="711.726" cy="466.515" r="2.51493" fill="black" fill-opacity="0.1"/>
<circle cx="759.007" cy="466.515" r="2.51493" fill="black" fill-opacity="0.1"/>
<circle cx="806.288" cy="466.515" r="2.51493" fill="black" fill-opacity="0.1"/>
<circle cx="853.569" cy="466.515" r="2.51493" fill="black" fill-opacity="0.1"/>
<circle cx="900.849" cy="466.515" r="2.51493" fill="black" fill-opacity="0.1"/>
<circle cx="948.13" cy="466.515" r="2.51493" fill="black" fill-opacity="0.1"/>
<circle cx="995.411" cy="466.515" r="2.51493" fill="black" fill-opacity="0.1"/>
<circle cx="1042.69" cy="466.515" r="2.51493" fill="black" fill-opacity="0.1"/>
<circle cx="1089.97" cy="466.515" r="2.51493" fill="black" fill-opacity="0.1"/>
<circle cx="1137.25" cy="466.515" r="2.51493" fill="black" fill-opacity="0.1"/>
<circle cx="1184.53" cy="466.515" r="2.51493" fill="black" fill-opacity="0.1"/>
<circle cx="1231.81" cy="466.515" r="2.51493" fill="black" fill-opacity="0.1"/>
<circle cx="1279.1" cy="466.515" r="2.51493" fill="black" fill-opacity="0.1"/>
<circle cx="1326.38" cy="466.515" r="2.51493" fill="black" fill-opacity="0.1"/>
<circle cx="1373.66" cy="466.515" r="2.51493" fill="black" fill-opacity="0.1"/>
<circle cx="1420.94" cy="466.515" r="2.51493" fill="black" fill-opacity="0.1"/>
<circle cx="2.51493" cy="60.5149" r="2.51493" fill="black" fill-opacity="0.2"/>
<circle cx="49.7957" cy="60.5149" r="2.51493" fill="black" fill-opacity="0.2"/>
<circle cx="97.0765" cy="60.5149" r="2.51493" fill="black" fill-opacity="0.2"/>
<circle cx="144.357" cy="60.5149" r="2.51493" fill="black" fill-opacity="0.2"/>
<circle cx="191.638" cy="60.5149" r="2.51493" fill="black" fill-opacity="0.2"/>
<circle cx="238.919" cy="60.5149" r="2.51493" fill="black" fill-opacity="0.2"/>
<circle cx="286.199" cy="60.5149" r="2.51493" fill="black" fill-opacity="0.2"/>
<circle cx="333.48" cy="60.5149" r="2.51493" fill="black" fill-opacity="0.2"/>
<circle cx="380.761" cy="60.5149" r="2.51493" fill="black" fill-opacity="0.2"/>
<circle cx="428.042" cy="60.5149" r="2.51493" fill="black" fill-opacity="0.2"/>
<circle cx="475.323" cy="60.5149" r="2.51493" fill="black" fill-opacity="0.2"/>
<circle cx="522.603" cy="60.5149" r="2.51493" fill="black" fill-opacity="0.2"/>
<circle cx="569.884" cy="60.5149" r="2.51493" fill="black" fill-opacity="0.2"/>
<circle cx="617.165" cy="60.5149" r="2.51493" fill="black" fill-opacity="0.2"/>
<circle cx="664.446" cy="60.5149" r="2.51493" fill="black" fill-opacity="0.2"/>
<circle cx="711.726" cy="60.5149" r="2.51493" fill="black" fill-opacity="0.2"/>
<circle cx="759.007" cy="60.5149" r="2.51493" fill="black" fill-opacity="0.2"/>
<circle cx="806.288" cy="60.5149" r="2.51493" fill="black" fill-opacity="0.2"/>
<circle cx="853.569" cy="60.5149" r="2.51493" fill="black" fill-opacity="0.2"/>
<circle cx="900.849" cy="60.5149" r="2.51493" fill="black" fill-opacity="0.2"/>
<circle cx="948.13" cy="60.5149" r="2.51493" fill="black" fill-opacity="0.2"/>
<circle cx="995.411" cy="60.5149" r="2.51493" fill="black" fill-opacity="0.2"/>
<circle cx="1042.69" cy="60.5149" r="2.51493" fill="black" fill-opacity="0.2"/>
<circle cx="1089.97" cy="60.5149" r="2.51493" fill="black" fill-opacity="0.2"/>
<circle cx="1137.25" cy="60.5149" r="2.51493" fill="black" fill-opacity="0.2"/>
<circle cx="1184.53" cy="60.5149" r="2.51493" fill="black" fill-opacity="0.2"/>
<circle cx="1231.81" cy="60.5149" r="2.51493" fill="black" fill-opacity="0.2"/>
<circle cx="1279.1" cy="60.5149" r="2.51493" fill="black" fill-opacity="0.2"/>
<circle cx="1326.38" cy="60.5149" r="2.51493" fill="black" fill-opacity="0.2"/>
<circle cx="1373.66" cy="60.5149" r="2.51493" fill="black" fill-opacity="0.2"/>
<circle cx="1420.94" cy="60.5149" r="2.51493" fill="black" fill-opacity="0.2"/>
<circle cx="26.5149" cy="205.515" r="2.51493" fill="black" fill-opacity="0.2"/>
<circle cx="73.7957" cy="205.515" r="2.51493" fill="black" fill-opacity="0.2"/>
<circle cx="121.076" cy="205.515" r="2.51493" fill="black" fill-opacity="0.2"/>
<circle cx="168.357" cy="205.515" r="2.51493" fill="black" fill-opacity="0.2"/>
<circle cx="215.638" cy="205.515" r="2.51493" fill="black" fill-opacity="0.2"/>
<circle cx="262.919" cy="205.515" r="2.51493" fill="black" fill-opacity="0.2"/>
<circle cx="310.199" cy="205.515" r="2.51493" fill="black" fill-opacity="0.2"/>
<circle cx="357.48" cy="205.515" r="2.51493" fill="black" fill-opacity="0.2"/>
<circle cx="404.761" cy="205.515" r="2.51493" fill="black" fill-opacity="0.2"/>
<circle cx="452.042" cy="205.515" r="2.51493" fill="black" fill-opacity="0.2"/>
<circle cx="499.323" cy="205.515" r="2.51493" fill="black" fill-opacity="0.2"/>
<circle cx="546.603" cy="205.515" r="2.51493" fill="black" fill-opacity="0.2"/>
<circle cx="593.884" cy="205.515" r="2.51493" fill="black" fill-opacity="0.2"/>
<circle cx="641.165" cy="205.515" r="2.51493" fill="black" fill-opacity="0.2"/>
<circle cx="688.446" cy="205.515" r="2.51493" fill="black" fill-opacity="0.2"/>
<circle cx="735.726" cy="205.515" r="2.51493" fill="black" fill-opacity="0.2"/>
<circle cx="783.007" cy="205.515" r="2.51493" fill="black" fill-opacity="0.2"/>
<circle cx="830.288" cy="205.515" r="2.51493" fill="black" fill-opacity="0.2"/>
<circle cx="877.569" cy="205.515" r="2.51493" fill="black" fill-opacity="0.2"/>
<circle cx="924.849" cy="205.515" r="2.51493" fill="black" fill-opacity="0.2"/>
<circle cx="972.13" cy="205.515" r="2.51493" fill="black" fill-opacity="0.2"/>
<circle cx="1019.41" cy="205.515" r="2.51493" fill="black" fill-opacity="0.2"/>
<circle cx="1066.69" cy="205.515" r="2.51493" fill="black" fill-opacity="0.2"/>
<circle cx="1113.97" cy="205.515" r="2.51493" fill="black" fill-opacity="0.2"/>
<circle cx="1161.25" cy="205.515" r="2.51493" fill="black" fill-opacity="0.2"/>
<circle cx="1208.53" cy="205.515" r="2.51493" fill="black" fill-opacity="0.2"/>
<circle cx="1255.81" cy="205.515" r="2.51493" fill="black" fill-opacity="0.2"/>
<circle cx="1303.1" cy="205.515" r="2.51493" fill="black" fill-opacity="0.2"/>
<circle cx="1350.38" cy="205.515" r="2.51493" fill="black" fill-opacity="0.2"/>
<circle cx="1397.66" cy="205.515" r="2.51493" fill="black" fill-opacity="0.2"/>
<circle cx="2.51493" cy="408.515" r="2.51493" fill="black" fill-opacity="0.15"/>
<circle cx="49.7957" cy="408.515" r="2.51493" fill="black" fill-opacity="0.15"/>
<circle cx="97.0765" cy="408.515" r="2.51493" fill="black" fill-opacity="0.15"/>
<circle cx="144.357" cy="408.515" r="2.51493" fill="black" fill-opacity="0.15"/>
<circle cx="191.638" cy="408.515" r="2.51493" fill="black" fill-opacity="0.15"/>
<circle cx="238.919" cy="408.515" r="2.51493" fill="black" fill-opacity="0.15"/>
<circle cx="286.199" cy="408.515" r="2.51493" fill="black" fill-opacity="0.15"/>
<circle cx="333.48" cy="408.515" r="2.51493" fill="black" fill-opacity="0.15"/>
<circle cx="380.761" cy="408.515" r="2.51493" fill="black" fill-opacity="0.15"/>
<circle cx="428.042" cy="408.515" r="2.51493" fill="black" fill-opacity="0.15"/>
<circle cx="475.323" cy="408.515" r="2.51493" fill="black" fill-opacity="0.15"/>
<circle cx="522.603" cy="408.515" r="2.51493" fill="black" fill-opacity="0.15"/>
<circle cx="569.884" cy="408.515" r="2.51493" fill="black" fill-opacity="0.15"/>
<circle cx="617.165" cy="408.515" r="2.51493" fill="black" fill-opacity="0.15"/>
<circle cx="664.446" cy="408.515" r="2.51493" fill="black" fill-opacity="0.15"/>
<circle cx="711.726" cy="408.515" r="2.51493" fill="black" fill-opacity="0.15"/>
<circle cx="759.007" cy="408.515" r="2.51493" fill="black" fill-opacity="0.15"/>
<circle cx="806.288" cy="408.515" r="2.51493" fill="black" fill-opacity="0.15"/>
<circle cx="853.569" cy="408.515" r="2.51493" fill="black" fill-opacity="0.15"/>
<circle cx="900.849" cy="408.515" r="2.51493" fill="black" fill-opacity="0.15"/>
<circle cx="948.13" cy="408.515" r="2.51493" fill="black" fill-opacity="0.15"/>
<circle cx="995.411" cy="408.515" r="2.51493" fill="black" fill-opacity="0.15"/>
<circle cx="1042.69" cy="408.515" r="2.51493" fill="black" fill-opacity="0.15"/>
<circle cx="1089.97" cy="408.515" r="2.51493" fill="black" fill-opacity="0.15"/>
<circle cx="1137.25" cy="408.515" r="2.51493" fill="black" fill-opacity="0.15"/>
<circle cx="1184.53" cy="408.515" r="2.51493" fill="black" fill-opacity="0.15"/>
<circle cx="1231.81" cy="408.515" r="2.51493" fill="black" fill-opacity="0.15"/>
<circle cx="1279.1" cy="408.515" r="2.51493" fill="black" fill-opacity="0.15"/>
<circle cx="1326.38" cy="408.515" r="2.51493" fill="black" fill-opacity="0.15"/>
<circle cx="1373.66" cy="408.515" r="2.51493" fill="black" fill-opacity="0.15"/>
<circle cx="1420.94" cy="408.515" r="2.51493" fill="black" fill-opacity="0.15"/>
<circle cx="26.5149" cy="321.515" r="2.51493" fill="black" fill-opacity="0.2"/>
<circle cx="73.7957" cy="321.515" r="2.51493" fill="black" fill-opacity="0.2"/>
<circle cx="121.076" cy="321.515" r="2.51493" fill="black" fill-opacity="0.2"/>
<circle cx="168.357" cy="321.515" r="2.51493" fill="black" fill-opacity="0.2"/>
<circle cx="215.638" cy="321.515" r="2.51493" fill="black" fill-opacity="0.2"/>
<circle cx="262.919" cy="321.515" r="2.51493" fill="black" fill-opacity="0.2"/>
<circle cx="310.199" cy="321.515" r="2.51493" fill="black" fill-opacity="0.2"/>
<circle cx="357.48" cy="321.515" r="2.51493" fill="black" fill-opacity="0.2"/>
<circle cx="404.761" cy="321.515" r="2.51493" fill="black" fill-opacity="0.2"/>
<circle cx="452.042" cy="321.515" r="2.51493" fill="black" fill-opacity="0.2"/>
<circle cx="499.323" cy="321.515" r="2.51493" fill="black" fill-opacity="0.2"/>
<circle cx="546.603" cy="321.515" r="2.51493" fill="black" fill-opacity="0.2"/>
<circle cx="593.884" cy="321.515" r="2.51493" fill="black" fill-opacity="0.2"/>
<circle cx="641.165" cy="321.515" r="2.51493" fill="black" fill-opacity="0.2"/>
<circle cx="688.446" cy="321.515" r="2.51493" fill="black" fill-opacity="0.2"/>
<circle cx="735.726" cy="321.515" r="2.51493" fill="black" fill-opacity="0.2"/>
<circle cx="783.007" cy="321.515" r="2.51493" fill="black" fill-opacity="0.2"/>
<circle cx="830.288" cy="321.515" r="2.51493" fill="black" fill-opacity="0.2"/>
<circle cx="877.569" cy="321.515" r="2.51493" fill="black" fill-opacity="0.2"/>
<circle cx="924.849" cy="321.515" r="2.51493" fill="black" fill-opacity="0.2"/>
<circle cx="972.13" cy="321.515" r="2.51493" fill="black" fill-opacity="0.2"/>
<circle cx="1019.41" cy="321.515" r="2.51493" fill="black" fill-opacity="0.2"/>
<circle cx="1066.69" cy="321.515" r="2.51493" fill="black" fill-opacity="0.2"/>
<circle cx="1113.97" cy="321.515" r="2.51493" fill="black" fill-opacity="0.2"/>
<circle cx="1161.25" cy="321.515" r="2.51493" fill="black" fill-opacity="0.2"/>
<circle cx="1208.53" cy="321.515" r="2.51493" fill="black" fill-opacity="0.2"/>
<circle cx="1255.81" cy="321.515" r="2.51493" fill="black" fill-opacity="0.2"/>
<circle cx="1303.1" cy="321.515" r="2.51493" fill="black" fill-opacity="0.2"/>
<circle cx="1350.38" cy="321.515" r="2.51493" fill="black" fill-opacity="0.2"/>
<circle cx="1397.66" cy="321.515" r="2.51493" fill="black" fill-opacity="0.2"/>
<circle cx="2.51493" cy="524.515" r="2.51493" fill="black" fill-opacity="0.05"/>
<circle cx="49.7957" cy="524.515" r="2.51493" fill="black" fill-opacity="0.05"/>
<circle cx="97.0765" cy="524.515" r="2.51493" fill="black" fill-opacity="0.05"/>
<circle cx="144.357" cy="524.515" r="2.51493" fill="black" fill-opacity="0.05"/>
<circle cx="191.638" cy="524.515" r="2.51493" fill="black" fill-opacity="0.05"/>
<circle cx="238.919" cy="524.515" r="2.51493" fill="black" fill-opacity="0.05"/>
<circle cx="286.199" cy="524.515" r="2.51493" fill="black" fill-opacity="0.05"/>
<circle cx="333.48" cy="524.515" r="2.51493" fill="black" fill-opacity="0.05"/>
<circle cx="380.761" cy="524.515" r="2.51493" fill="black" fill-opacity="0.05"/>
<circle cx="428.042" cy="524.515" r="2.51493" fill="black" fill-opacity="0.05"/>
<circle cx="475.323" cy="524.515" r="2.51493" fill="black" fill-opacity="0.05"/>
<circle cx="522.603" cy="524.515" r="2.51493" fill="black" fill-opacity="0.05"/>
<circle cx="569.884" cy="524.515" r="2.51493" fill="black" fill-opacity="0.05"/>
<circle cx="617.165" cy="524.515" r="2.51493" fill="black" fill-opacity="0.05"/>
<circle cx="664.446" cy="524.515" r="2.51493" fill="black" fill-opacity="0.05"/>
<circle cx="711.726" cy="524.515" r="2.51493" fill="black" fill-opacity="0.05"/>
<circle cx="759.007" cy="524.515" r="2.51493" fill="black" fill-opacity="0.05"/>
<circle cx="806.288" cy="524.515" r="2.51493" fill="black" fill-opacity="0.05"/>
<circle cx="853.569" cy="524.515" r="2.51493" fill="black" fill-opacity="0.05"/>
<circle cx="900.849" cy="524.515" r="2.51493" fill="black" fill-opacity="0.05"/>
<circle cx="948.13" cy="524.515" r="2.51493" fill="black" fill-opacity="0.05"/>
<circle cx="995.411" cy="524.515" r="2.51493" fill="black" fill-opacity="0.05"/>
<circle cx="1042.69" cy="524.515" r="2.51493" fill="black" fill-opacity="0.05"/>
<circle cx="1089.97" cy="524.515" r="2.51493" fill="black" fill-opacity="0.05"/>
<circle cx="1137.25" cy="524.515" r="2.51493" fill="black" fill-opacity="0.05"/>
<circle cx="1184.53" cy="524.515" r="2.51493" fill="black" fill-opacity="0.05"/>
<circle cx="1231.81" cy="524.515" r="2.51493" fill="black" fill-opacity="0.05"/>
<circle cx="1279.1" cy="524.515" r="2.51493" fill="black" fill-opacity="0.05"/>
<circle cx="1326.38" cy="524.515" r="2.51493" fill="black" fill-opacity="0.05"/>
<circle cx="1373.66" cy="524.515" r="2.51493" fill="black" fill-opacity="0.05"/>
<circle cx="1420.94" cy="524.515" r="2.51493" fill="black" fill-opacity="0.05"/>
<circle cx="26.5149" cy="31.5149" r="2.51493" fill="black" fill-opacity="0.2"/>
<circle cx="73.7957" cy="31.5149" r="2.51493" fill="black" fill-opacity="0.2"/>
<circle cx="121.076" cy="31.5149" r="2.51493" fill="black" fill-opacity="0.2"/>
<circle cx="168.357" cy="31.5149" r="2.51493" fill="black" fill-opacity="0.2"/>
<circle cx="215.638" cy="31.5149" r="2.51493" fill="black" fill-opacity="0.2"/>
<circle cx="262.919" cy="31.5149" r="2.51493" fill="black" fill-opacity="0.2"/>
<circle cx="310.199" cy="31.5149" r="2.51493" fill="black" fill-opacity="0.2"/>
<circle cx="357.48" cy="31.5149" r="2.51493" fill="black" fill-opacity="0.2"/>
<circle cx="404.761" cy="31.5149" r="2.51493" fill="black" fill-opacity="0.2"/>
<circle cx="452.042" cy="31.5149" r="2.51493" fill="black" fill-opacity="0.2"/>
<circle cx="499.323" cy="31.5149" r="2.51493" fill="black" fill-opacity="0.2"/>
<circle cx="546.603" cy="31.5149" r="2.51493" fill="black" fill-opacity="0.2"/>
<circle cx="593.884" cy="31.5149" r="2.51493" fill="black" fill-opacity="0.2"/>
<circle cx="641.165" cy="31.5149" r="2.51493" fill="black" fill-opacity="0.2"/>
<circle cx="688.446" cy="31.5149" r="2.51493" fill="black" fill-opacity="0.2"/>
<circle cx="735.726" cy="31.5149" r="2.51493" fill="black" fill-opacity="0.2"/>
<circle cx="783.007" cy="31.5149" r="2.51493" fill="black" fill-opacity="0.2"/>
<circle cx="830.288" cy="31.5149" r="2.51493" fill="black" fill-opacity="0.2"/>
<circle cx="877.569" cy="31.5149" r="2.51493" fill="black" fill-opacity="0.2"/>
<circle cx="924.849" cy="31.5149" r="2.51493" fill="black" fill-opacity="0.2"/>
<circle cx="972.13" cy="31.5149" r="2.51493" fill="black" fill-opacity="0.2"/>
<circle cx="1019.41" cy="31.5149" r="2.51493" fill="black" fill-opacity="0.2"/>
<circle cx="1066.69" cy="31.5149" r="2.51493" fill="black" fill-opacity="0.2"/>
<circle cx="1113.97" cy="31.5149" r="2.51493" fill="black" fill-opacity="0.2"/>
<circle cx="1161.25" cy="31.5149" r="2.51493" fill="black" fill-opacity="0.2"/>
<circle cx="1208.53" cy="31.5149" r="2.51493" fill="black" fill-opacity="0.2"/>
<circle cx="1255.81" cy="31.5149" r="2.51493" fill="black" fill-opacity="0.2"/>
<circle cx="1303.1" cy="31.5149" r="2.51493" fill="black" fill-opacity="0.2"/>
<circle cx="1350.38" cy="31.5149" r="2.51493" fill="black" fill-opacity="0.2"/>
<circle cx="1397.66" cy="31.5149" r="2.51493" fill="black" fill-opacity="0.2"/>
<circle cx="2.51493" cy="176.515" r="2.51493" fill="black" fill-opacity="0.2"/>
<circle cx="49.7957" cy="176.515" r="2.51493" fill="black" fill-opacity="0.2"/>
<circle cx="97.0765" cy="176.515" r="2.51493" fill="black" fill-opacity="0.2"/>
<circle cx="144.357" cy="176.515" r="2.51493" fill="black" fill-opacity="0.2"/>
<circle cx="191.638" cy="176.515" r="2.51493" fill="black" fill-opacity="0.2"/>
<circle cx="238.919" cy="176.515" r="2.51493" fill="black" fill-opacity="0.2"/>
<circle cx="286.199" cy="176.515" r="2.51493" fill="black" fill-opacity="0.2"/>
<circle cx="333.48" cy="176.515" r="2.51493" fill="black" fill-opacity="0.2"/>
<circle cx="380.761" cy="176.515" r="2.51493" fill="black" fill-opacity="0.2"/>
<circle cx="428.042" cy="176.515" r="2.51493" fill="black" fill-opacity="0.2"/>
<circle cx="475.323" cy="176.515" r="2.51493" fill="black" fill-opacity="0.2"/>
<circle cx="522.603" cy="176.515" r="2.51493" fill="black" fill-opacity="0.2"/>
<circle cx="569.884" cy="176.515" r="2.51493" fill="black" fill-opacity="0.2"/>
<circle cx="617.165" cy="176.515" r="2.51493" fill="black" fill-opacity="0.2"/>
<circle cx="664.446" cy="176.515" r="2.51493" fill="black" fill-opacity="0.2"/>
<circle cx="711.726" cy="176.515" r="2.51493" fill="black" fill-opacity="0.2"/>
<circle cx="759.007" cy="176.515" r="2.51493" fill="black" fill-opacity="0.2"/>
<circle cx="806.288" cy="176.515" r="2.51493" fill="black" fill-opacity="0.2"/>
<circle cx="853.569" cy="176.515" r="2.51493" fill="black" fill-opacity="0.2"/>
<circle cx="900.849" cy="176.515" r="2.51493" fill="black" fill-opacity="0.2"/>
<circle cx="948.13" cy="176.515" r="2.51493" fill="black" fill-opacity="0.2"/>
<circle cx="995.411" cy="176.515" r="2.51493" fill="black" fill-opacity="0.2"/>
<circle cx="1042.69" cy="176.515" r="2.51493" fill="black" fill-opacity="0.2"/>
<circle cx="1089.97" cy="176.515" r="2.51493" fill="black" fill-opacity="0.2"/>
<circle cx="1137.25" cy="176.515" r="2.51493" fill="black" fill-opacity="0.2"/>
<circle cx="1184.53" cy="176.515" r="2.51493" fill="black" fill-opacity="0.2"/>
<circle cx="1231.81" cy="176.515" r="2.51493" fill="black" fill-opacity="0.2"/>
<circle cx="1279.1" cy="176.515" r="2.51493" fill="black" fill-opacity="0.2"/>
<circle cx="1326.38" cy="176.515" r="2.51493" fill="black" fill-opacity="0.2"/>
<circle cx="1373.66" cy="176.515" r="2.51493" fill="black" fill-opacity="0.2"/>
<circle cx="1420.94" cy="176.515" r="2.51493" fill="black" fill-opacity="0.2"/>
<circle cx="26.5149" cy="379.515" r="2.51493" fill="black" fill-opacity="0.2"/>
<circle cx="73.7957" cy="379.515" r="2.51493" fill="black" fill-opacity="0.2"/>
<circle cx="121.076" cy="379.515" r="2.51493" fill="black" fill-opacity="0.2"/>
<circle cx="168.357" cy="379.515" r="2.51493" fill="black" fill-opacity="0.2"/>
<circle cx="215.638" cy="379.515" r="2.51493" fill="black" fill-opacity="0.2"/>
<circle cx="262.919" cy="379.515" r="2.51493" fill="black" fill-opacity="0.2"/>
<circle cx="310.199" cy="379.515" r="2.51493" fill="black" fill-opacity="0.2"/>
<circle cx="357.48" cy="379.515" r="2.51493" fill="black" fill-opacity="0.2"/>
<circle cx="404.761" cy="379.515" r="2.51493" fill="black" fill-opacity="0.2"/>
<circle cx="452.042" cy="379.515" r="2.51493" fill="black" fill-opacity="0.2"/>
<circle cx="499.323" cy="379.515" r="2.51493" fill="black" fill-opacity="0.2"/>
<circle cx="546.603" cy="379.515" r="2.51493" fill="black" fill-opacity="0.2"/>
<circle cx="593.884" cy="379.515" r="2.51493" fill="black" fill-opacity="0.2"/>
<circle cx="641.165" cy="379.515" r="2.51493" fill="black" fill-opacity="0.2"/>
<circle cx="688.446" cy="379.515" r="2.51493" fill="black" fill-opacity="0.2"/>
<circle cx="735.726" cy="379.515" r="2.51493" fill="black" fill-opacity="0.2"/>
<circle cx="783.007" cy="379.515" r="2.51493" fill="black" fill-opacity="0.2"/>
<circle cx="830.288" cy="379.515" r="2.51493" fill="black" fill-opacity="0.2"/>
<circle cx="877.569" cy="379.515" r="2.51493" fill="black" fill-opacity="0.2"/>
<circle cx="924.849" cy="379.515" r="2.51493" fill="black" fill-opacity="0.2"/>
<circle cx="972.13" cy="379.515" r="2.51493" fill="black" fill-opacity="0.2"/>
<circle cx="1019.41" cy="379.515" r="2.51493" fill="black" fill-opacity="0.2"/>
<circle cx="1066.69" cy="379.515" r="2.51493" fill="black" fill-opacity="0.2"/>
<circle cx="1113.97" cy="379.515" r="2.51493" fill="black" fill-opacity="0.2"/>
<circle cx="1161.25" cy="379.515" r="2.51493" fill="black" fill-opacity="0.2"/>
<circle cx="1208.53" cy="379.515" r="2.51493" fill="black" fill-opacity="0.2"/>
<circle cx="1255.81" cy="379.515" r="2.51493" fill="black" fill-opacity="0.2"/>
<circle cx="1303.1" cy="379.515" r="2.51493" fill="black" fill-opacity="0.2"/>
<circle cx="1350.38" cy="379.515" r="2.51493" fill="black" fill-opacity="0.2"/>
<circle cx="1397.66" cy="379.515" r="2.51493" fill="black" fill-opacity="0.2"/>
<circle cx="2.51493" cy="118.515" r="2.51493" fill="black" fill-opacity="0.2"/>
<circle cx="49.7957" cy="118.515" r="2.51493" fill="black" fill-opacity="0.2"/>
<circle cx="97.0765" cy="118.515" r="2.51493" fill="black" fill-opacity="0.2"/>
<circle cx="144.357" cy="118.515" r="2.51493" fill="black" fill-opacity="0.2"/>
<circle cx="191.638" cy="118.515" r="2.51493" fill="black" fill-opacity="0.2"/>
<circle cx="238.919" cy="118.515" r="2.51493" fill="black" fill-opacity="0.2"/>
<circle cx="286.199" cy="118.515" r="2.51493" fill="black" fill-opacity="0.2"/>
<circle cx="333.48" cy="118.515" r="2.51493" fill="black" fill-opacity="0.2"/>
<circle cx="380.761" cy="118.515" r="2.51493" fill="black" fill-opacity="0.2"/>
<circle cx="428.042" cy="118.515" r="2.51493" fill="black" fill-opacity="0.2"/>
<circle cx="475.323" cy="118.515" r="2.51493" fill="black" fill-opacity="0.2"/>
<circle cx="522.603" cy="118.515" r="2.51493" fill="black" fill-opacity="0.2"/>
<circle cx="569.884" cy="118.515" r="2.51493" fill="black" fill-opacity="0.2"/>
<circle cx="617.165" cy="118.515" r="2.51493" fill="black" fill-opacity="0.2"/>
<circle cx="664.446" cy="118.515" r="2.51493" fill="black" fill-opacity="0.2"/>
<circle cx="711.726" cy="118.515" r="2.51493" fill="black" fill-opacity="0.2"/>
<circle cx="759.007" cy="118.515" r="2.51493" fill="black" fill-opacity="0.2"/>
<circle cx="806.288" cy="118.515" r="2.51493" fill="black" fill-opacity="0.2"/>
<circle cx="853.569" cy="118.515" r="2.51493" fill="black" fill-opacity="0.2"/>
<circle cx="900.849" cy="118.515" r="2.51493" fill="black" fill-opacity="0.2"/>
<circle cx="948.13" cy="118.515" r="2.51493" fill="black" fill-opacity="0.2"/>
<circle cx="995.411" cy="118.515" r="2.51493" fill="black" fill-opacity="0.2"/>
<circle cx="1042.69" cy="118.515" r="2.51493" fill="black" fill-opacity="0.2"/>
<circle cx="1089.97" cy="118.515" r="2.51493" fill="black" fill-opacity="0.2"/>
<circle cx="1137.25" cy="118.515" r="2.51493" fill="black" fill-opacity="0.2"/>
<circle cx="1184.53" cy="118.515" r="2.51493" fill="black" fill-opacity="0.2"/>
<circle cx="1231.81" cy="118.515" r="2.51493" fill="black" fill-opacity="0.2"/>
<circle cx="1279.1" cy="118.515" r="2.51493" fill="black" fill-opacity="0.2"/>
<circle cx="1326.38" cy="118.515" r="2.51493" fill="black" fill-opacity="0.2"/>
<circle cx="1373.66" cy="118.515" r="2.51493" fill="black" fill-opacity="0.2"/>
<circle cx="1420.94" cy="118.515" r="2.51493" fill="black" fill-opacity="0.2"/>
<circle cx="2.51493" cy="292.515" r="2.51493" fill="black" fill-opacity="0.2"/>
<circle cx="49.7957" cy="292.515" r="2.51493" fill="black" fill-opacity="0.2"/>
<circle cx="97.0765" cy="292.515" r="2.51493" fill="black" fill-opacity="0.2"/>
<circle cx="144.357" cy="292.515" r="2.51493" fill="black" fill-opacity="0.2"/>
<circle cx="191.638" cy="292.515" r="2.51493" fill="black" fill-opacity="0.2"/>
<circle cx="238.919" cy="292.515" r="2.51493" fill="black" fill-opacity="0.2"/>
<circle cx="286.199" cy="292.515" r="2.51493" fill="black" fill-opacity="0.2"/>
<circle cx="333.48" cy="292.515" r="2.51493" fill="black" fill-opacity="0.2"/>
<circle cx="380.761" cy="292.515" r="2.51493" fill="black" fill-opacity="0.2"/>
<circle cx="428.042" cy="292.515" r="2.51493" fill="black" fill-opacity="0.2"/>
<circle cx="475.323" cy="292.515" r="2.51493" fill="black" fill-opacity="0.2"/>
<circle cx="522.603" cy="292.515" r="2.51493" fill="black" fill-opacity="0.2"/>
<circle cx="569.884" cy="292.515" r="2.51493" fill="black" fill-opacity="0.2"/>
<circle cx="617.165" cy="292.515" r="2.51493" fill="black" fill-opacity="0.2"/>
<circle cx="664.446" cy="292.515" r="2.51493" fill="black" fill-opacity="0.2"/>
<circle cx="711.726" cy="292.515" r="2.51493" fill="black" fill-opacity="0.2"/>
<circle cx="759.007" cy="292.515" r="2.51493" fill="black" fill-opacity="0.2"/>
<circle cx="806.288" cy="292.515" r="2.51493" fill="black" fill-opacity="0.2"/>
<circle cx="853.569" cy="292.515" r="2.51493" fill="black" fill-opacity="0.2"/>
<circle cx="900.849" cy="292.515" r="2.51493" fill="black" fill-opacity="0.2"/>
<circle cx="948.13" cy="292.515" r="2.51493" fill="black" fill-opacity="0.2"/>
<circle cx="995.411" cy="292.515" r="2.51493" fill="black" fill-opacity="0.2"/>
<circle cx="1042.69" cy="292.515" r="2.51493" fill="black" fill-opacity="0.2"/>
<circle cx="1089.97" cy="292.515" r="2.51493" fill="black" fill-opacity="0.2"/>
<circle cx="1137.25" cy="292.515" r="2.51493" fill="black" fill-opacity="0.2"/>
<circle cx="1184.53" cy="292.515" r="2.51493" fill="black" fill-opacity="0.2"/>
<circle cx="1231.81" cy="292.515" r="2.51493" fill="black" fill-opacity="0.2"/>
<circle cx="1279.1" cy="292.515" r="2.51493" fill="black" fill-opacity="0.2"/>
<circle cx="1326.38" cy="292.515" r="2.51493" fill="black" fill-opacity="0.2"/>
<circle cx="1373.66" cy="292.515" r="2.51493" fill="black" fill-opacity="0.2"/>
<circle cx="1420.94" cy="292.515" r="2.51493" fill="black" fill-opacity="0.2"/>
<circle cx="26.5149" cy="495.515" r="2.51493" fill="black" fill-opacity="0.08"/>
<circle cx="73.7957" cy="495.515" r="2.51493" fill="black" fill-opacity="0.08"/>
<circle cx="121.076" cy="495.515" r="2.51493" fill="black" fill-opacity="0.08"/>
<circle cx="168.357" cy="495.515" r="2.51493" fill="black" fill-opacity="0.08"/>
<circle cx="215.638" cy="495.515" r="2.51493" fill="black" fill-opacity="0.08"/>
<circle cx="262.919" cy="495.515" r="2.51493" fill="black" fill-opacity="0.08"/>
<circle cx="310.199" cy="495.515" r="2.51493" fill="black" fill-opacity="0.08"/>
<circle cx="357.48" cy="495.515" r="2.51493" fill="black" fill-opacity="0.08"/>
<circle cx="404.761" cy="495.515" r="2.51493" fill="black" fill-opacity="0.08"/>
<circle cx="452.042" cy="495.515" r="2.51493" fill="black" fill-opacity="0.08"/>
<circle cx="499.323" cy="495.515" r="2.51493" fill="black" fill-opacity="0.08"/>
<circle cx="546.603" cy="495.515" r="2.51493" fill="black" fill-opacity="0.08"/>
<circle cx="593.884" cy="495.515" r="2.51493" fill="black" fill-opacity="0.08"/>
<circle cx="641.165" cy="495.515" r="2.51493" fill="black" fill-opacity="0.08"/>
<circle cx="688.446" cy="495.515" r="2.51493" fill="black" fill-opacity="0.08"/>
<circle cx="735.726" cy="495.515" r="2.51493" fill="black" fill-opacity="0.08"/>
<circle cx="783.007" cy="495.515" r="2.51493" fill="black" fill-opacity="0.08"/>
<circle cx="830.288" cy="495.515" r="2.51493" fill="black" fill-opacity="0.08"/>
<circle cx="877.569" cy="495.515" r="2.51493" fill="black" fill-opacity="0.08"/>
<circle cx="924.849" cy="495.515" r="2.51493" fill="black" fill-opacity="0.08"/>
<circle cx="972.13" cy="495.515" r="2.51493" fill="black" fill-opacity="0.08"/>
<circle cx="1019.41" cy="495.515" r="2.51493" fill="black" fill-opacity="0.08"/>
<circle cx="1066.69" cy="495.515" r="2.51493" fill="black" fill-opacity="0.08"/>
<circle cx="1113.97" cy="495.515" r="2.51493" fill="black" fill-opacity="0.08"/>
<circle cx="1161.25" cy="495.515" r="2.51493" fill="black" fill-opacity="0.08"/>
<circle cx="1208.53" cy="495.515" r="2.51493" fill="black" fill-opacity="0.08"/>
<circle cx="1255.81" cy="495.515" r="2.51493" fill="black" fill-opacity="0.08"/>
<circle cx="1303.1" cy="495.515" r="2.51493" fill="black" fill-opacity="0.08"/>
<circle cx="1350.38" cy="495.515" r="2.51493" fill="black" fill-opacity="0.08"/>
<circle cx="1397.66" cy="495.515" r="2.51493" fill="black" fill-opacity="0.08"/>
<circle cx="2.51493" cy="234.515" r="2.51493" fill="black" fill-opacity="0.2"/>
<circle cx="49.7957" cy="234.515" r="2.51493" fill="black" fill-opacity="0.2"/>
<circle cx="97.0765" cy="234.515" r="2.51493" fill="black" fill-opacity="0.2"/>
<circle cx="144.357" cy="234.515" r="2.51493" fill="black" fill-opacity="0.2"/>
<circle cx="191.638" cy="234.515" r="2.51493" fill="black" fill-opacity="0.2"/>
<circle cx="238.919" cy="234.515" r="2.51493" fill="black" fill-opacity="0.2"/>
<circle cx="286.199" cy="234.515" r="2.51493" fill="black" fill-opacity="0.2"/>
<circle cx="333.48" cy="234.515" r="2.51493" fill="black" fill-opacity="0.2"/>
<circle cx="380.761" cy="234.515" r="2.51493" fill="black" fill-opacity="0.2"/>
<circle cx="428.042" cy="234.515" r="2.51493" fill="black" fill-opacity="0.2"/>
<circle cx="475.323" cy="234.515" r="2.51493" fill="black" fill-opacity="0.2"/>
<circle cx="522.603" cy="234.515" r="2.51493" fill="black" fill-opacity="0.2"/>
<circle cx="569.884" cy="234.515" r="2.51493" fill="black" fill-opacity="0.2"/>
<circle cx="617.165" cy="234.515" r="2.51493" fill="black" fill-opacity="0.2"/>
<circle cx="664.446" cy="234.515" r="2.51493" fill="black" fill-opacity="0.2"/>
<circle cx="711.726" cy="234.515" r="2.51493" fill="black" fill-opacity="0.2"/>
<circle cx="759.007" cy="234.515" r="2.51493" fill="black" fill-opacity="0.2"/>
<circle cx="806.288" cy="234.515" r="2.51493" fill="black" fill-opacity="0.2"/>
<circle cx="853.569" cy="234.515" r="2.51493" fill="black" fill-opacity="0.2"/>
<circle cx="900.849" cy="234.515" r="2.51493" fill="black" fill-opacity="0.2"/>
<circle cx="948.13" cy="234.515" r="2.51493" fill="black" fill-opacity="0.2"/>
<circle cx="995.411" cy="234.515" r="2.51493" fill="black" fill-opacity="0.2"/>
<circle cx="1042.69" cy="234.515" r="2.51493" fill="black" fill-opacity="0.2"/>
<circle cx="1089.97" cy="234.515" r="2.51493" fill="black" fill-opacity="0.2"/>
<circle cx="1137.25" cy="234.515" r="2.51493" fill="black" fill-opacity="0.2"/>
<circle cx="1184.53" cy="234.515" r="2.51493" fill="black" fill-opacity="0.2"/>
<circle cx="1231.81" cy="234.515" r="2.51493" fill="black" fill-opacity="0.2"/>
<circle cx="1279.1" cy="234.515" r="2.51493" fill="black" fill-opacity="0.2"/>
<circle cx="1326.38" cy="234.515" r="2.51493" fill="black" fill-opacity="0.2"/>
<circle cx="1373.66" cy="234.515" r="2.51493" fill="black" fill-opacity="0.2"/>
<circle cx="1420.94" cy="234.515" r="2.51493" fill="black" fill-opacity="0.2"/>
<circle cx="26.5149" cy="437.515" r="2.51493" fill="black" fill-opacity="0.12"/>
<circle cx="73.7957" cy="437.515" r="2.51493" fill="black" fill-opacity="0.12"/>
<circle cx="121.076" cy="437.515" r="2.51493" fill="black" fill-opacity="0.12"/>
<circle cx="168.357" cy="437.515" r="2.51493" fill="black" fill-opacity="0.12"/>
<circle cx="215.638" cy="437.515" r="2.51493" fill="black" fill-opacity="0.12"/>
<circle cx="262.919" cy="437.515" r="2.51493" fill="black" fill-opacity="0.12"/>
<circle cx="310.199" cy="437.515" r="2.51493" fill="black" fill-opacity="0.12"/>
<circle cx="357.48" cy="437.515" r="2.51493" fill="black" fill-opacity="0.12"/>
<circle cx="404.761" cy="437.515" r="2.51493" fill="black" fill-opacity="0.12"/>
<circle cx="452.042" cy="437.515" r="2.51493" fill="black" fill-opacity="0.12"/>
<circle cx="499.323" cy="437.515" r="2.51493" fill="black" fill-opacity="0.12"/>
<circle cx="546.603" cy="437.515" r="2.51493" fill="black" fill-opacity="0.12"/>
<circle cx="593.884" cy="437.515" r="2.51493" fill="black" fill-opacity="0.12"/>
<circle cx="641.165" cy="437.515" r="2.51493" fill="black" fill-opacity="0.12"/>
<circle cx="688.446" cy="437.515" r="2.51493" fill="black" fill-opacity="0.12"/>
<circle cx="735.726" cy="437.515" r="2.51493" fill="black" fill-opacity="0.12"/>
<circle cx="783.007" cy="437.515" r="2.51493" fill="black" fill-opacity="0.12"/>
<circle cx="830.288" cy="437.515" r="2.51493" fill="black" fill-opacity="0.12"/>
<circle cx="877.569" cy="437.515" r="2.51493" fill="black" fill-opacity="0.12"/>
<circle cx="924.849" cy="437.515" r="2.51493" fill="black" fill-opacity="0.12"/>
<circle cx="972.13" cy="437.515" r="2.51493" fill="black" fill-opacity="0.12"/>
<circle cx="1019.41" cy="437.515" r="2.51493" fill="black" fill-opacity="0.12"/>
<circle cx="1066.69" cy="437.515" r="2.51493" fill="black" fill-opacity="0.12"/>
<circle cx="1113.97" cy="437.515" r="2.51493" fill="black" fill-opacity="0.12"/>
<circle cx="1161.25" cy="437.515" r="2.51493" fill="black" fill-opacity="0.12"/>
<circle cx="1208.53" cy="437.515" r="2.51493" fill="black" fill-opacity="0.12"/>
<circle cx="1255.81" cy="437.515" r="2.51493" fill="black" fill-opacity="0.12"/>
<circle cx="1303.1" cy="437.515" r="2.51493" fill="black" fill-opacity="0.12"/>
<circle cx="1350.38" cy="437.515" r="2.51493" fill="black" fill-opacity="0.12"/>
<circle cx="1397.66" cy="437.515" r="2.51493" fill="black" fill-opacity="0.12"/>
</g>
</svg>
