<svg width="98" height="32" viewBox="0 0 98 32" fill="none" xmlns="http://www.w3.org/2000/svg">
<g opacity="0.6">
<path d="M54.8468 16.03L51.0213 7.06953V16.03H49.9913V5.46577H51.4185L55.3323 14.6764L59.2755 5.46577H60.688V16.03H59.6728V7.06953L55.8179 16.03H54.8468ZM66.0977 16.1771C63.9643 16.1771 62.4193 14.4851 62.4193 12.1457C62.4193 9.82094 63.9643 8.14361 66.0977 8.14361C68.2459 8.14361 69.7908 9.82094 69.7908 12.1457C69.7908 14.4851 68.2459 16.1771 66.0977 16.1771ZM66.0977 15.2796C67.6132 15.2796 68.7461 14.0731 68.7461 12.1457C68.7461 10.2476 67.6132 9.04113 66.0977 9.04113C64.5969 9.04113 63.464 10.2476 63.464 12.1457C63.464 14.0731 64.5969 15.2796 66.0977 15.2796ZM77.2533 13.8671C77.2533 15.2943 76.1057 16.1771 74.1929 16.1771C72.2655 16.1771 71.0884 15.206 70.9413 13.6023H71.9271C72.0006 14.7058 72.8687 15.3973 74.1929 15.3973C75.4583 15.3973 76.2234 14.9118 76.2234 14.029C76.2234 13.2639 75.782 12.9108 74.6049 12.6753L73.4867 12.4546C72.0154 12.1751 71.2355 11.4541 71.2355 10.3359C71.2355 9.04113 72.3832 8.1289 74.0752 8.1289C75.8556 8.1289 77.0326 9.08527 77.1503 10.6302H76.1793C76.0763 9.5561 75.2964 8.92342 74.0752 8.92342C72.9864 8.92342 72.2361 9.43839 72.2361 10.2476C72.2361 11.0127 72.7069 11.3806 73.8545 11.6013L75.0169 11.822C76.5618 12.1162 77.2533 12.7636 77.2533 13.8671ZM82.0885 16.1771C79.9109 16.1771 78.469 14.5439 78.469 12.0868C78.469 9.82094 79.9698 8.1289 82.0297 8.1289C84.2367 8.1289 85.6786 9.90922 85.502 12.3958H79.499C79.5872 14.235 80.5583 15.3679 82.0738 15.3679C83.3686 15.3679 84.2661 14.6469 84.5162 13.411H85.5315C85.1783 15.1325 83.8688 16.1771 82.0885 16.1771ZM82.015 8.92342C80.6172 8.92342 79.6314 9.9975 79.499 11.6895H84.428C84.3397 9.95336 83.4422 8.92342 82.015 8.92342ZM93.0013 13.8671C93.0013 15.2943 91.8536 16.1771 89.9409 16.1771C88.0134 16.1771 86.8364 15.206 86.6892 13.6023H87.675C87.7486 14.7058 88.6167 15.3973 89.9409 15.3973C91.2062 15.3973 91.9713 14.9118 91.9713 14.029C91.9713 13.2639 91.5299 12.9108 90.3529 12.6753L89.2346 12.4546C87.7633 12.1751 86.9835 11.4541 86.9835 10.3359C86.9835 9.04113 88.1311 8.1289 89.8232 8.1289C91.6035 8.1289 92.7806 9.08527 92.8983 10.6302H91.9272C91.8242 9.5561 91.0444 8.92342 89.8232 8.92342C88.7344 8.92342 87.984 9.43839 87.984 10.2476C87.984 11.0127 88.4548 11.3806 89.6025 11.6013L90.7648 11.822C92.3097 12.1162 93.0013 12.7636 93.0013 13.8671Z" fill="black"/>
<path d="M59.5403 29.1793H57.2892L56.5535 26.9428H51.7128L50.9919 29.1793H48.8584L52.3308 18.8799H56.068L59.5403 29.1793ZM54.1405 19.4978L52.3161 25.0742H55.9503L54.1405 19.4978ZM62.9393 29.1793H60.9529V23.338H59.4228V21.5871H60.9529V21.234C60.9529 20.2433 61.2031 19.5076 61.7033 19.027C62.2036 18.5366 62.9736 18.2913 64.0133 18.2913H64.9109V20.0422H64.0133C63.2973 20.0422 62.9393 20.4003 62.9393 21.1163V21.5871H64.9109V23.338H62.9393V29.1793ZM66.5262 28.1935C65.7513 27.4382 65.3639 26.5014 65.3639 25.3832C65.3639 24.265 65.7513 23.3282 66.5262 22.5729C67.3011 21.8177 68.2673 21.44 69.4248 21.44C70.5822 21.44 71.5484 21.8177 72.3233 22.5729C73.0982 23.3282 73.4857 24.265 73.4857 25.3832C73.4857 26.5014 73.0982 27.4382 72.3233 28.1935C71.5484 28.9488 70.5822 29.3264 69.4248 29.3264C68.2673 29.3264 67.3011 28.9488 66.5262 28.1935ZM67.4237 25.3832C67.4237 25.9914 67.615 26.5014 67.9976 26.9134C68.3801 27.3156 68.8558 27.5166 69.4248 27.5166C69.9937 27.5166 70.4694 27.3156 70.852 26.9134C71.2345 26.5014 71.4258 25.9914 71.4258 25.3832C71.4258 24.775 71.2345 24.2699 70.852 23.8677C70.4694 23.4656 69.9937 23.2645 69.4248 23.2645C68.8558 23.2645 68.3801 23.4705 67.9976 23.8824C67.615 24.2846 67.4237 24.7849 67.4237 25.3832ZM76.7685 29.1793H74.7822V18.2913H76.7685V29.1793ZM81.538 21.44C82.4993 21.44 83.2791 21.6901 83.8775 22.1904C84.4758 22.6906 84.775 23.4214 84.775 24.3827V29.1793H82.7887V27.2959C82.3669 28.6496 81.4939 29.3264 80.1697 29.3264C79.5517 29.3264 79.022 29.1253 78.5806 28.7231C78.1392 28.321 77.9185 27.7962 77.9185 27.1488C77.9185 25.7265 78.8945 24.9124 80.8465 24.7064L82.0824 24.5887C82.5533 24.5593 82.7887 24.3582 82.7887 23.9854C82.7887 23.7108 82.671 23.4901 82.4356 23.3233C82.2099 23.1566 81.9157 23.0732 81.5527 23.0732C81.1604 23.0732 80.8367 23.1762 80.5817 23.3822C80.3364 23.5784 80.1795 23.8579 80.1108 24.2208L78.1392 23.7794C78.2471 23.1026 78.6052 22.5435 79.2133 22.1021C79.8215 21.6607 80.5964 21.44 81.538 21.44ZM80.8759 27.7521C81.3958 27.7521 81.8421 27.5755 82.2149 27.2224C82.5974 26.8693 82.7887 26.4622 82.7887 26.0012V25.8099C82.671 25.9178 82.4454 25.9914 82.1119 26.0306L80.8318 26.1777C80.5473 26.217 80.3217 26.3101 80.155 26.4573C79.9882 26.5946 79.9048 26.7712 79.9048 26.987C79.9048 27.2126 79.9931 27.3989 80.1697 27.5461C80.3462 27.6834 80.5817 27.7521 80.8759 27.7521ZM91.0732 21.44C92.0149 21.44 92.7947 21.8177 93.4127 22.5729C94.0306 23.3282 94.3396 24.265 94.3396 25.3832C94.3396 26.5014 94.0306 27.4382 93.4127 28.1935C92.7947 28.9488 92.0149 29.3264 91.0732 29.3264C90.4062 29.3264 89.8275 29.1204 89.3371 28.7084C88.8564 28.2866 88.5033 27.7177 88.2777 27.0017V29.1793H86.2914V18.2913H88.2777V23.7647C88.5033 23.0487 88.8564 22.4847 89.3371 22.0727C89.8275 21.6509 90.4062 21.44 91.0732 21.44ZM90.3523 27.5166C90.8918 27.5166 91.3479 27.3156 91.7206 26.9134C92.0934 26.5014 92.2797 25.9914 92.2797 25.3832C92.2797 24.7849 92.0934 24.2846 91.7206 23.8824C91.3479 23.4705 90.8918 23.2645 90.3523 23.2645C89.7539 23.2645 89.2586 23.4656 88.8662 23.8677C88.4739 24.2699 88.2777 24.775 88.2777 25.3832C88.2777 25.9914 88.4739 26.5014 88.8662 26.9134C89.2586 27.3156 89.7539 27.5166 90.3523 27.5166ZM95.425 19.4831C95.425 19.1496 95.5427 18.8701 95.7781 18.6445C96.0135 18.409 96.298 18.2913 96.6315 18.2913C96.9552 18.2913 97.2347 18.409 97.4701 18.6445C97.7055 18.8701 97.8232 19.1496 97.8232 19.4831C97.8232 19.8068 97.7055 20.0864 97.4701 20.3218C97.2347 20.5572 96.9552 20.6749 96.6315 20.6749C96.298 20.6749 96.0135 20.5572 95.7781 20.3218C95.5427 20.0864 95.425 19.8068 95.425 19.4831ZM97.6173 29.1793H95.6309V21.5871H97.6173V29.1793Z" fill="black"/>
<path d="M0.0661908 27.1374C0.0437044 21.3513 0.0216588 15.5644 5.42266e-05 9.77655C-0.0118504 6.51536 1.93719 4.14502 5.00461 3.69198C7.91462 3.2654 10.5105 5.10797 11.3537 8.21903C12.3081 11.7296 13.2426 15.246 14.1897 18.7586C14.2895 19.1289 14.4139 19.4927 14.5785 20.0277C14.9992 19.0859 15.31 18.3333 15.6665 17.6025C16.306 16.2923 17.3424 15.045 17.5256 13.6793C17.7147 12.2706 17.0309 10.7593 16.8272 9.2792C16.6003 7.61785 16.4839 5.94063 16.312 4.21446L20.2286 4.01605C20.427 5.86788 20.6201 7.63637 20.8311 9.58343C21.2597 9.20513 21.5374 8.96836 21.8059 8.72366C25.2642 5.55439 29.3038 4.18272 33.9943 4.71049C41.2395 5.52595 45.9054 11.9981 44.5503 19.4093C43.2904 26.3041 36.5425 30.6572 29.6954 28.9608C25.7034 27.9687 23.0262 25.3028 20.9508 21.9212C20.4045 21.0323 19.9482 20.0886 19.4502 19.1699L19.1195 19.1078C18.2412 21.8729 17.3378 24.6302 16.4978 27.4066C16.1162 28.6685 15.4985 29.3444 14.4886 29.351C13.4787 29.3576 12.7975 28.7339 12.445 27.4377C11.773 24.9765 11.1079 22.5138 10.4496 20.0495C9.47676 16.4372 8.51117 12.8235 7.52838 9.21439C7.1137 7.69325 5.57338 7.04842 4.60911 8.06229C4.19774 8.49416 3.96428 9.26862 3.96097 9.88898C3.93386 15.6429 3.9742 21.3967 3.9947 27.146C3.9947 27.5389 3.9947 27.931 3.99933 28.3543L0.0661908 28.3689C0.0661908 27.8775 0.0661908 27.5078 0.0661908 27.1374ZM33.4843 8.63371C28.5625 8.09404 25.0797 10.4379 22.2768 14.1614C22.1386 14.3446 22.0745 14.6905 22.1446 14.9061C23.1789 18.0363 24.5255 20.9993 27.0744 23.2215C29.8237 25.6156 32.9473 25.9932 36.2012 24.5224C39.4353 23.0601 40.6985 20.2618 40.8255 17.3267C40.8645 12.504 37.807 9.10791 33.4843 8.63371Z" fill="black"/>
</g>
</svg>
