<svg width="98" height="32" viewBox="0 0 98 32" fill="none" xmlns="http://www.w3.org/2000/svg">
<path d="M54.8468 16.03L51.0213 7.06957V16.03H49.9913V5.4658H51.4185L55.3323 14.6764L59.2755 5.4658H60.688V16.03H59.6728V7.06957L55.8179 16.03H54.8468ZM66.0977 16.1772C63.9643 16.1772 62.4193 14.4851 62.4193 12.1457C62.4193 9.82097 63.9643 8.14364 66.0977 8.14364C68.2459 8.14364 69.7908 9.82097 69.7908 12.1457C69.7908 14.4851 68.2459 16.1772 66.0977 16.1772ZM66.0977 15.2796C67.6132 15.2796 68.7461 14.0731 68.7461 12.1457C68.7461 10.2477 67.6132 9.04116 66.0977 9.04116C64.5969 9.04116 63.464 10.2477 63.464 12.1457C63.464 14.0731 64.5969 15.2796 66.0977 15.2796ZM77.2533 13.8672C77.2533 15.2944 76.1057 16.1772 74.1929 16.1772C72.2655 16.1772 71.0884 15.2061 70.9413 13.6023H71.9271C72.0006 14.7058 72.8687 15.3974 74.1929 15.3974C75.4583 15.3974 76.2234 14.9118 76.2234 14.029C76.2234 13.2639 75.782 12.9108 74.6049 12.6754L73.4867 12.4547C72.0154 12.1751 71.2355 11.4542 71.2355 10.3359C71.2355 9.04116 72.3832 8.12893 74.0752 8.12893C75.8556 8.12893 77.0326 9.0853 77.1503 10.6302H76.1793C76.0763 9.55613 75.2964 8.92345 74.0752 8.92345C72.9864 8.92345 72.2361 9.43842 72.2361 10.2477C72.2361 11.0128 72.7069 11.3806 73.8545 11.6013L75.0169 11.822C76.5618 12.1163 77.2533 12.7637 77.2533 13.8672ZM82.0885 16.1772C79.9109 16.1772 78.469 14.544 78.469 12.0868C78.469 9.82097 79.9698 8.12893 82.0297 8.12893C84.2367 8.12893 85.6786 9.90925 85.502 12.3958H79.499C79.5872 14.235 80.5583 15.3679 82.0738 15.3679C83.3686 15.3679 84.2661 14.647 84.5162 13.411H85.5315C85.1783 15.1325 83.8688 16.1772 82.0885 16.1772ZM82.015 8.92345C80.6172 8.92345 79.6314 9.99753 79.499 11.6896H84.428C84.3397 9.95339 83.4422 8.92345 82.015 8.92345ZM93.0013 13.8672C93.0013 15.2944 91.8536 16.1772 89.9409 16.1772C88.0134 16.1772 86.8364 15.2061 86.6892 13.6023H87.675C87.7486 14.7058 88.6167 15.3974 89.9409 15.3974C91.2062 15.3974 91.9713 14.9118 91.9713 14.029C91.9713 13.2639 91.5299 12.9108 90.3529 12.6754L89.2346 12.4547C87.7633 12.1751 86.9835 11.4542 86.9835 10.3359C86.9835 9.04116 88.1311 8.12893 89.8232 8.12893C91.6035 8.12893 92.7806 9.0853 92.8983 10.6302H91.9272C91.8242 9.55613 91.0444 8.92345 89.8232 8.92345C88.7344 8.92345 87.984 9.43842 87.984 10.2477C87.984 11.0128 88.4548 11.3806 89.6025 11.6013L90.7648 11.822C92.3097 12.1163 93.0013 12.7637 93.0013 13.8672Z" fill="black"/>
<path d="M59.5403 29.1792H57.2892L56.5535 26.9428H51.7128L50.9919 29.1792H48.8584L52.3308 18.8798H56.068L59.5403 29.1792ZM54.1405 19.4978L52.3161 25.0742H55.9503L54.1405 19.4978ZM62.9393 29.1792H60.9529V23.338H59.4228V21.5871H60.9529V21.234C60.9529 20.2433 61.2031 19.5076 61.7033 19.0269C62.2036 18.5365 62.9736 18.2913 64.0133 18.2913H64.9109V20.0422H64.0133C63.2973 20.0422 62.9393 20.4002 62.9393 21.1163V21.5871H64.9109V23.338H62.9393V29.1792ZM66.5262 28.1934C65.7513 27.4381 65.3639 26.5014 65.3639 25.3831C65.3639 24.2649 65.7513 23.3282 66.5262 22.5729C67.3011 21.8176 68.2673 21.4399 69.4248 21.4399C70.5822 21.4399 71.5484 21.8176 72.3233 22.5729C73.0982 23.3282 73.4857 24.2649 73.4857 25.3831C73.4857 26.5014 73.0982 27.4381 72.3233 28.1934C71.5484 28.9487 70.5822 29.3263 69.4248 29.3263C68.2673 29.3263 67.3011 28.9487 66.5262 28.1934ZM67.4237 25.3831C67.4237 25.9913 67.615 26.5014 67.9976 26.9133C68.3801 27.3155 68.8558 27.5166 69.4248 27.5166C69.9937 27.5166 70.4694 27.3155 70.852 26.9133C71.2345 26.5014 71.4258 25.9913 71.4258 25.3831C71.4258 24.775 71.2345 24.2698 70.852 23.8677C70.4694 23.4655 69.9937 23.2644 69.4248 23.2644C68.8558 23.2644 68.3801 23.4704 67.9976 23.8824C67.615 24.2845 67.4237 24.7848 67.4237 25.3831ZM76.7685 29.1792H74.7822V18.2913H76.7685V29.1792ZM81.538 21.4399C82.4993 21.4399 83.2791 21.6901 83.8775 22.1903C84.4758 22.6906 84.775 23.4214 84.775 24.3826V29.1792H82.7887V27.2959C82.3669 28.6495 81.4939 29.3263 80.1697 29.3263C79.5517 29.3263 79.022 29.1253 78.5806 28.7231C78.1392 28.3209 77.9185 27.7961 77.9185 27.1487C77.9185 25.7265 78.8945 24.9123 80.8465 24.7063L82.0824 24.5886C82.5533 24.5592 82.7887 24.3581 82.7887 23.9854C82.7887 23.7107 82.671 23.49 82.4356 23.3233C82.2099 23.1565 81.9157 23.0731 81.5527 23.0731C81.1604 23.0731 80.8367 23.1761 80.5817 23.3821C80.3364 23.5783 80.1795 23.8579 80.1108 24.2208L78.1392 23.7794C78.2471 23.1026 78.6052 22.5435 79.2133 22.1021C79.8215 21.6606 80.5964 21.4399 81.538 21.4399ZM80.8759 27.752C81.3958 27.752 81.8421 27.5754 82.2149 27.2223C82.5974 26.8692 82.7887 26.4621 82.7887 26.0011V25.8098C82.671 25.9177 82.4454 25.9913 82.1119 26.0305L80.8318 26.1777C80.5473 26.2169 80.3217 26.3101 80.155 26.4572C79.9882 26.5945 79.9048 26.7711 79.9048 26.9869C79.9048 27.2125 79.9931 27.3989 80.1697 27.546C80.3462 27.6833 80.5817 27.752 80.8759 27.752ZM91.0732 21.4399C92.0149 21.4399 92.7947 21.8176 93.4127 22.5729C94.0306 23.3282 94.3396 24.2649 94.3396 25.3831C94.3396 26.5014 94.0306 27.4381 93.4127 28.1934C92.7947 28.9487 92.0149 29.3263 91.0732 29.3263C90.4062 29.3263 89.8275 29.1203 89.3371 28.7084C88.8564 28.2866 88.5033 27.7177 88.2777 27.0016V29.1792H86.2914V18.2913H88.2777V23.7647C88.5033 23.0486 88.8564 22.4846 89.3371 22.0726C89.8275 21.6508 90.4062 21.4399 91.0732 21.4399ZM90.3523 27.5166C90.8918 27.5166 91.3479 27.3155 91.7206 26.9133C92.0934 26.5014 92.2797 25.9913 92.2797 25.3831C92.2797 24.7848 92.0934 24.2845 91.7206 23.8824C91.3479 23.4704 90.8918 23.2644 90.3523 23.2644C89.7539 23.2644 89.2586 23.4655 88.8662 23.8677C88.4739 24.2698 88.2777 24.775 88.2777 25.3831C88.2777 25.9913 88.4739 26.5014 88.8662 26.9133C89.2586 27.3155 89.7539 27.5166 90.3523 27.5166ZM95.425 19.4831C95.425 19.1496 95.5427 18.87 95.7781 18.6444C96.0135 18.409 96.298 18.2913 96.6315 18.2913C96.9552 18.2913 97.2347 18.409 97.4701 18.6444C97.7055 18.87 97.8232 19.1496 97.8232 19.4831C97.8232 19.8068 97.7055 20.0863 97.4701 20.3217C97.2347 20.5571 96.9552 20.6749 96.6315 20.6749C96.298 20.6749 96.0135 20.5571 95.7781 20.3217C95.5427 20.0863 95.425 19.8068 95.425 19.4831ZM97.6173 29.1792H95.6309V21.5871H97.6173V29.1792Z" fill="black"/>
<path d="M0.0661908 27.1375C0.0437044 21.3515 0.0216588 15.5645 5.42266e-05 9.77667C-0.0118504 6.51548 1.93719 4.14514 5.00461 3.69211C7.91462 3.26553 10.5105 5.10809 11.3537 8.21916C12.3081 11.7297 13.2426 15.2462 14.1897 18.7587C14.2895 19.129 14.4139 19.4928 14.5785 20.0278C14.9992 19.0861 15.31 18.3334 15.6665 17.6026C16.306 16.2924 17.3424 15.0451 17.5256 13.6794C17.7147 12.2707 17.0309 10.7595 16.8272 9.27933C16.6003 7.61797 16.4839 5.94075 16.312 4.21459L20.2286 4.01618C20.427 5.868 20.6201 7.63649 20.8311 9.58355C21.2597 9.20525 21.5374 8.96848 21.8059 8.72378C25.2642 5.55451 29.3038 4.18284 33.9943 4.71061C41.2395 5.52607 45.9054 11.9982 44.5503 19.4095C43.2904 26.3042 36.5425 30.6573 29.6954 28.9609C25.7034 27.9689 23.0262 25.3029 20.9508 21.9213C20.4045 21.0325 19.9482 20.0887 19.4502 19.17L19.1195 19.1079C18.2412 21.8731 17.3378 24.6303 16.4978 27.4067C16.1162 28.6686 15.4985 29.3445 14.4886 29.3511C13.4787 29.3577 12.7975 28.7341 12.445 27.4378C11.773 24.9766 11.1079 22.5139 10.4496 20.0497C9.47676 16.4373 8.51117 12.8236 7.52838 9.21451C7.1137 7.69337 5.57338 7.04854 4.60911 8.06241C4.19774 8.49428 3.96428 9.26874 3.96097 9.8891C3.93386 15.643 3.9742 21.3969 3.9947 27.1461C3.9947 27.539 3.9947 27.9312 3.99933 28.3544L0.0661908 28.369C0.0661908 27.8776 0.0661908 27.5079 0.0661908 27.1375ZM33.4843 8.63383C28.5625 8.09416 25.0797 10.438 22.2768 14.1615C22.1386 14.3447 22.0745 14.6906 22.1446 14.9062C23.1789 18.0365 24.5255 20.9994 27.0744 23.2216C29.8237 25.6157 32.9473 25.9934 36.2012 24.5225C39.4353 23.0602 40.6985 20.262 40.8255 17.3268C40.8645 12.5041 37.807 9.10803 33.4843 8.63383Z" fill="black"/>
</svg>
