<svg width="16" height="18" viewBox="0 0 16 18" fill="none" xmlns="http://www.w3.org/2000/svg">
<path d="M4.7 12.1785C4.61749 12.0085 4.57376 11.8181 4.57376 11.6284C4.57376 11.2919 4.70494 10.9753 4.94333 10.7369C5.18171 10.4985 5.49838 10.3673 5.8348 10.3673C6.02452 10.3673 6.21495 10.411 6.38492 10.4936C6.44134 10.5211 6.50975 10.5098 6.55418 10.4646L7.4513 9.56752C7.50914 9.50969 7.50914 9.41589 7.4513 9.35804L6.28265 8.18939C6.22341 8.13015 6.19097 8.05116 6.19097 7.96723C6.19097 7.8833 6.22341 7.80431 6.28265 7.74506C6.40185 7.62587 6.46813 7.46647 6.46813 7.29791C6.46813 7.12864 6.40254 6.96995 6.28265 6.85075C6.16346 6.73156 6.00406 6.66528 5.8355 6.66528C5.66623 6.66528 5.50755 6.73087 5.38835 6.85075C5.26563 6.97347 5.06675 6.97347 4.94403 6.85075L3.77538 5.68211C3.74788 5.6546 3.70979 5.63908 3.671 5.63908C3.63221 5.63908 3.59413 5.6546 3.56662 5.68211L0.149518 9.09921C0.0528941 9.19583 0 9.3249 0 9.46313C0 9.60135 0.0528959 9.73043 0.149518 9.82704L3.56662 13.2441C3.59554 13.2731 3.63362 13.2872 3.671 13.2872C3.70909 13.2872 3.74647 13.2724 3.77538 13.2441L4.6725 12.347C4.71623 12.3026 4.72751 12.2349 4.7 12.1785ZM3.6703 12.9303L0.357561 9.61756C0.316655 9.57665 0.294791 9.52235 0.294791 9.4631C0.294791 9.40386 0.317359 9.34885 0.357561 9.30865L3.6703 5.9959L4.73456 7.06016C4.97224 7.29783 5.35943 7.29783 5.59711 7.06016C5.66058 6.99668 5.74521 6.96142 5.83549 6.96142C5.92576 6.96142 6.01039 6.99668 6.07387 7.06016C6.13734 7.12363 6.17261 7.20827 6.17261 7.29854C6.17261 7.38881 6.13734 7.47345 6.07387 7.53692C5.95891 7.65188 5.89543 7.80563 5.89543 7.96784C5.89543 8.13076 5.95891 8.2838 6.07387 8.39876L7.13812 9.46302L6.41733 10.1838C6.23326 10.1098 6.03436 10.0717 5.83547 10.0717C5.42006 10.0717 5.02862 10.2339 4.73452 10.5273C4.44043 10.8214 4.27892 11.2121 4.27892 11.6282C4.27892 11.8271 4.31771 12.026 4.39106 12.2101L3.6703 12.9303ZM15.8519 9.0992L12.4348 5.68209C12.4073 5.65459 12.3692 5.63907 12.3304 5.63907C12.2909 5.63907 12.2535 5.65459 12.226 5.68209L11.3289 6.57921C11.2845 6.62365 11.2732 6.69135 11.3007 6.74848C11.3832 6.91845 11.4269 7.10888 11.4269 7.2986C11.4269 7.63502 11.2957 7.95169 11.0574 8.19007C10.8246 8.42282 10.5164 8.55328 10.1878 8.55893C10.1807 8.55752 10.1729 8.55752 10.1659 8.55752C9.97547 8.55752 9.78574 8.5145 9.61577 8.43269C9.55935 8.40518 9.49164 8.41717 9.44721 8.46161L8.54868 9.35873C8.49085 9.41656 8.49085 9.51036 8.54868 9.5682L9.71734 10.7369C9.77658 10.7961 9.80902 10.8751 9.80902 10.959C9.80902 11.043 9.77658 11.1219 9.71734 11.1812C9.59673 11.3018 9.53043 11.4605 9.53043 11.6283C9.53043 11.6375 9.53113 11.646 9.53255 11.6544C9.53889 11.8138 9.60378 11.9626 9.71732 12.0762C9.83651 12.1954 9.99591 12.2617 10.1645 12.2617C10.3337 12.2617 10.4924 12.1961 10.6116 12.0762C10.7343 11.9535 10.9332 11.9535 11.0559 12.0762L12.2246 13.2448C12.2535 13.2737 12.2916 13.2879 12.329 13.2879C12.3671 13.2879 12.4044 13.273 12.4334 13.2448L15.8505 9.82773C15.9471 9.73111 16 9.60204 16 9.46381C16.0014 9.32487 15.9478 9.19581 15.8519 9.0992ZM15.6424 9.61758L12.3297 12.9303L11.2654 11.8661C11.1462 11.7469 10.9904 11.6876 10.8345 11.6876C10.6786 11.6876 10.522 11.7469 10.4036 11.8661C10.3401 11.9295 10.2555 11.9648 10.1652 11.9648C10.0749 11.9648 9.99027 11.9295 9.9268 11.8661C9.86333 11.8026 9.82806 11.718 9.82806 11.6277C9.82806 11.6213 9.82736 11.615 9.82665 11.6086C9.83159 11.5268 9.86615 11.4492 9.9268 11.3893C10.0418 11.2743 10.1052 11.1206 10.1052 10.9584C10.1052 10.7955 10.0418 10.6424 9.9268 10.5275L8.86255 9.46321L9.58404 8.74171C9.76036 8.81153 9.95007 8.84962 10.1405 8.85315C10.1483 8.85456 10.1567 8.85526 10.1645 8.85526C10.5799 8.85526 10.9706 8.69305 11.2654 8.39966C11.5595 8.10556 11.721 7.71483 11.721 7.29872C11.721 7.09982 11.6822 6.90094 11.6089 6.71686L12.3297 5.99606L15.6424 9.3088C15.6833 9.34971 15.7052 9.40402 15.7052 9.46326C15.7059 9.5225 15.6833 9.57737 15.6424 9.61758ZM10.884 12.7913C10.8396 12.7469 10.7719 12.7356 10.7147 12.7624C10.5448 12.8449 10.3543 12.8886 10.1646 12.8886C9.82818 12.8886 9.51152 12.7574 9.27314 12.5191C9.04039 12.2863 8.90992 11.9781 8.90427 11.6494C8.90568 11.6424 8.90568 11.6346 8.90568 11.6276C8.90568 11.4372 8.9487 11.2474 9.03052 11.0775C9.05802 11.021 9.04603 10.9533 9.0016 10.9089L8.10377 10.0111C8.07627 9.98358 8.03818 9.96806 7.99939 9.96806C7.9599 9.96806 7.92252 9.98358 7.89501 10.0111L6.72636 11.1797C6.60365 11.3025 6.40477 11.3025 6.28205 11.1797C6.16285 11.0605 6.00346 10.9943 5.8349 10.9943C5.66563 10.9943 5.50694 11.0598 5.38774 11.1797C5.26855 11.2989 5.20226 11.4583 5.20226 11.6269C5.20226 11.7962 5.26785 11.9548 5.38774 12.074C5.51046 12.1968 5.51046 12.3956 5.38774 12.5184L4.21909 13.687C4.19159 13.7145 4.17607 13.7526 4.17607 13.7914C4.17607 13.8309 4.19159 13.8683 4.21909 13.8958L7.6362 17.3129C7.73282 17.4095 7.86188 17.4624 8.00011 17.4624C8.13834 17.4624 8.26742 17.4095 8.36403 17.3129L11.7811 13.8958C11.8086 13.8683 11.8242 13.8302 11.8242 13.7914C11.8242 13.7519 11.8086 13.7145 11.7811 13.687L10.884 12.7913ZM8.15461 17.1056C8.1137 17.1465 8.05869 17.1683 8.00015 17.1683C7.94091 17.1683 7.8859 17.1458 7.84569 17.1056L4.53223 13.7928L5.59648 12.7286C5.83416 12.4909 5.83416 12.1037 5.59648 11.866C5.53301 11.8025 5.49775 11.7179 5.49775 11.6276C5.49775 11.5374 5.53301 11.4527 5.59648 11.3892C5.65996 11.3258 5.74459 11.2905 5.83487 11.2905C5.92514 11.2905 6.00977 11.3258 6.07325 11.3892C6.31092 11.6269 6.69811 11.6269 6.93579 11.3892L8.00005 10.3257L8.72155 11.0472C8.65172 11.2235 8.61364 11.4132 8.61011 11.6037C8.6087 11.6114 8.608 11.6199 8.608 11.6283C8.608 12.0437 8.77021 12.4352 9.0636 12.7293C9.3577 13.0234 9.74843 13.1849 10.1645 13.1849C10.3634 13.1849 10.5623 13.1461 10.7464 13.0727L11.4672 13.7935L8.15461 17.1056ZM8.50301 6.20481H7.49659C7.41478 6.20481 7.34848 6.13851 7.34848 6.0567C7.34848 5.97489 7.41478 5.90859 7.49659 5.90859H8.50301C8.58483 5.90859 8.65112 5.97489 8.65112 6.0567C8.65112 6.13851 8.58483 6.20481 8.50301 6.20481ZM8.21879 6.592C8.3006 6.592 8.3669 6.65829 8.3669 6.7401C8.3669 6.82192 8.3006 6.88821 8.21879 6.88821H7.78222C7.70041 6.88821 7.63411 6.82192 7.63411 6.7401C7.63411 6.65829 7.70041 6.592 7.78222 6.592H8.21879ZM7.85206 1.08231V0.685949C7.85206 0.604138 7.91835 0.537842 8.00016 0.537842C8.08198 0.537842 8.14827 0.604138 8.14827 0.685949V1.08231C8.14827 1.16412 8.08198 1.23042 8.00016 1.23042C7.91835 1.23042 7.85206 1.16412 7.85206 1.08231ZM9.58845 1.88844C9.53062 1.8306 9.53062 1.7368 9.58845 1.67896L9.86915 1.39826C9.92698 1.34043 10.0208 1.34043 10.0786 1.39826C10.1365 1.45609 10.1365 1.54989 10.0786 1.60773L9.79792 1.88844C9.76901 1.91735 9.73092 1.93146 9.69354 1.93146C9.65546 1.93146 9.61736 1.91665 9.58845 1.88844ZM10.2465 3.47672C10.2465 3.39491 10.3128 3.32861 10.3946 3.32861H10.7909C10.8727 3.32861 10.939 3.39491 10.939 3.47672C10.939 3.55853 10.8727 3.62483 10.7909 3.62483L10.3946 3.62412C10.3128 3.62412 10.2465 3.55783 10.2465 3.47672ZM5.92246 1.60766C5.86463 1.54983 5.86463 1.45603 5.92246 1.39819C5.98029 1.34035 6.07409 1.34035 6.13193 1.39819L6.41263 1.67889C6.47047 1.73672 6.47047 1.83052 6.41263 1.88836C6.38372 1.91728 6.34563 1.93138 6.30826 1.93138C6.27017 1.93138 6.23279 1.91657 6.20388 1.88836L5.92246 1.60766ZM5.06203 3.47672C5.06203 3.39491 5.12832 3.32861 5.21013 3.32861H5.6065C5.68831 3.32861 5.7546 3.39491 5.7546 3.47672C5.7546 3.55853 5.68831 3.62483 5.6065 3.62483H5.21013C5.12762 3.62412 5.06203 3.55783 5.06203 3.47672ZM6.7949 4.67005C6.92608 4.82169 7.03893 4.95216 7.08759 5.16586C7.13484 5.37534 7.33937 5.52133 7.5834 5.52133H8.41704C8.66107 5.52133 8.86489 5.37534 8.91285 5.16586C8.96151 4.95216 9.07435 4.8217 9.20554 4.67005C9.39737 4.44789 9.6153 4.19681 9.6153 3.66926C9.6153 2.7792 8.89098 2.05418 8.00022 2.05418C7.11016 2.05418 6.38514 2.7785 6.38514 3.66926C6.38514 4.19752 6.60306 4.44859 6.7949 4.67005ZM8.00022 2.35034C8.72735 2.35034 9.31909 2.94206 9.31909 3.66921C9.31909 4.08673 9.16251 4.26728 8.98126 4.47676C8.84443 4.63544 8.68857 4.81458 8.62368 5.10022C8.60463 5.18273 8.50519 5.22575 8.41633 5.22575H8.14762V4.29126C8.14762 4.20945 8.08132 4.14315 7.99951 4.14315C7.9177 4.14315 7.8514 4.20945 7.8514 4.29126V5.22575H7.58269C7.49382 5.22575 7.39438 5.18273 7.37535 5.10022C7.31046 4.81458 7.15459 4.63474 7.01777 4.47676C6.83651 4.26728 6.67994 4.08673 6.67994 3.66921C6.68135 2.94207 7.27309 2.35034 8.00022 2.35034Z" fill="black"/>
</svg>
