<svg width="16" height="16" viewBox="0 0 16 16" fill="none" xmlns="http://www.w3.org/2000/svg">
<path d="M8.5871 13.2586H8.36536C8.62489 12.6161 8.90962 12.0063 9.18426 11.5225C9.2019 11.4923 9.20946 11.4595 9.20946 11.4268C9.20946 11.4167 9.2019 11.4066 9.2019 11.3965C9.19686 11.3739 9.19686 11.3537 9.18426 11.3336C9.18426 11.3336 9.18426 11.3336 9.18426 11.331C8.23434 9.76379 7.13072 6.97702 7.08536 4.20284C7.49103 4.13481 7.80347 3.78457 7.80347 3.35874V3.07402C8.27214 2.99339 8.62993 2.5852 8.62993 2.09638V0.435906C8.62993 0.194016 8.4334 0 8.19403 0H7.36001C7.11812 0 6.9241 0.196536 6.9241 0.435906V1.13134C6.9241 1.1641 6.89891 1.18929 6.86615 1.18929H6.05229C6.01953 1.18929 5.99434 1.1641 5.99434 1.13134V0.435906C5.99434 0.194016 5.7978 0 5.55843 0H4.56567C4.32378 0 4.12977 0.196536 4.12977 0.435906V1.13134C4.12977 1.1641 4.10457 1.18929 4.07182 1.18929H3.25796C3.2252 1.18929 3.2 1.1641 3.2 1.13134V0.435906C3.2 0.194016 3.00347 0 2.7641 0H1.91748C1.67559 0 1.48158 0.196536 1.48158 0.435906V2.09638C1.48158 2.58772 1.83937 2.99339 2.30551 3.07402V3.35874C2.30551 3.78457 2.61796 4.13481 3.02363 4.20284C2.97827 6.97702 1.87465 9.76379 0.924726 11.331C0.924726 11.331 0.924726 11.331 0.924726 11.3336C0.912127 11.3537 0.912127 11.3739 0.907088 11.3965C0.904568 11.4066 0.899529 11.4167 0.899529 11.4268C0.899529 11.4595 0.907088 11.4923 0.924726 11.5225C1.19685 12.0063 1.48158 12.6161 1.7411 13.2586H1.51937C0.680316 13.2586 0 13.9414 0 14.778V15.297C0 15.6851 0.314961 16 0.702993 16H9.406C9.79403 16 10.109 15.6851 10.109 15.297V14.778C10.1065 13.9389 9.42615 13.2586 8.5871 13.2586ZM1.85953 2.09638V0.435906C1.85953 0.40315 1.88725 0.377953 1.91748 0.377953H2.7515C2.78426 0.377953 2.80945 0.40315 2.80945 0.435906V1.13134C2.80945 1.37323 3.00599 1.56725 3.24536 1.56725H4.05922C4.30111 1.56725 4.49512 1.37071 4.49512 1.13134V0.435906C4.49512 0.40315 4.52284 0.377953 4.55308 0.377953H5.54583C5.57859 0.377953 5.60379 0.40315 5.60379 0.435906V1.13134C5.60379 1.37323 5.80032 1.56725 6.03969 1.56725H6.85355C7.09544 1.56725 7.28946 1.37071 7.28946 1.13134V0.435906C7.28946 0.40315 7.31465 0.377953 7.34741 0.377953H8.18143C8.21418 0.377953 8.23938 0.40315 8.23938 0.435906V2.09638C8.23938 2.43654 7.96221 2.7137 7.62206 2.7137H7.60946C7.60694 2.7137 7.60442 2.71118 7.6019 2.71118H2.49449C2.49197 2.71118 2.48945 2.7137 2.48693 2.7137H2.47685C2.1367 2.7137 1.85953 2.43654 1.85953 2.09638ZM2.68347 3.35874V3.09166H7.423V3.35874C7.423 3.62331 7.20631 3.84 6.94174 3.84H6.88883H3.21764H3.16473C2.89764 3.84 2.68347 3.62331 2.68347 3.35874ZM3.4041 4.21796H6.70237C6.74772 6.90143 7.75812 9.59497 8.6904 11.2403H1.41606C2.34835 9.59497 3.35874 6.90143 3.4041 4.21796ZM1.40599 11.6183H8.703C8.49891 12.0063 8.23686 12.5506 7.95969 13.2586H2.14677C1.86961 12.5506 1.61008 12.0063 1.40599 11.6183ZM9.72852 15.297C9.72852 15.4759 9.58237 15.6221 9.40348 15.6221H0.702993C0.524095 15.6221 0.377953 15.4759 0.377953 15.297V14.778C0.377953 14.148 0.88945 13.6366 1.51937 13.6366H2.01827H8.0882H8.5871C9.21702 13.6366 9.72852 14.148 9.72852 14.778V15.297Z" fill="black"/>
<path d="M15.0551 8.24951H13.0671C13.0646 8.24951 13.0646 8.24951 13.062 8.24951H11.1874C11.1849 8.24951 11.1849 8.24951 11.1824 8.24951H9.19433C9.01039 8.24951 8.83149 8.30242 8.67779 8.40321C8.5896 8.46116 8.56692 8.57707 8.62488 8.66526C8.68283 8.75345 8.79873 8.77613 8.88692 8.71817C8.97763 8.6577 9.08598 8.62494 9.19684 8.62494H11.0009V10.5853C11.0009 10.6961 11.0665 10.7969 11.1698 10.8398C11.2705 10.8826 11.389 10.8624 11.4696 10.7868L12.1272 10.162L12.7849 10.7868C12.8378 10.8372 12.9058 10.8624 12.9764 10.8624C13.0142 10.8624 13.0494 10.8549 13.0847 10.8398C13.1855 10.7969 13.2535 10.6961 13.2535 10.5853V8.62494H15.0551C15.3676 8.62494 15.622 8.87943 15.622 9.19187V15.0552C15.622 15.3676 15.3676 15.6221 15.0551 15.6221H10.8346C10.7313 15.6221 10.6457 15.7078 10.6457 15.8111C10.6457 15.9144 10.7313 16.0001 10.8346 16.0001H15.0551C15.5767 16.0001 16 15.5768 16 15.0552V9.19439C16 8.67534 15.5767 8.24951 15.0551 8.24951ZM12.8731 10.3535L12.3162 9.82432C12.2079 9.72353 12.0416 9.72353 11.9357 9.82432L11.3789 10.3535V8.62746H12.8756V10.3535H12.8731Z" fill="black"/>
<path d="M14.4403 15.03C14.5436 15.03 14.6293 14.9443 14.6293 14.841V13.7425L14.7074 13.8206C14.7805 13.8936 14.9014 13.8936 14.9745 13.8206C15.0476 13.7475 15.0476 13.6265 14.9745 13.5535L14.5739 13.1528C14.5562 13.1352 14.5361 13.1201 14.5109 13.1125C14.4655 13.0924 14.4126 13.0924 14.3672 13.1125C14.3521 13.1201 14.3395 13.1302 14.3269 13.1402C14.3194 13.1453 14.3143 13.1478 14.3068 13.1528L13.9036 13.5535C13.8305 13.6265 13.8305 13.7475 13.9036 13.8206C13.9414 13.8584 13.9893 13.876 14.0372 13.876C14.085 13.876 14.1329 13.8584 14.1707 13.8206L14.2513 13.7399V14.8385C14.2513 14.9469 14.337 15.03 14.4403 15.03Z" fill="black"/>
<path d="M12.8453 15.03C12.9486 15.03 13.0343 14.9443 13.0343 14.841V13.7425L13.1124 13.8206C13.1855 13.8936 13.3064 13.8936 13.3795 13.8206C13.4526 13.7475 13.4526 13.6265 13.3795 13.5535L12.9789 13.1528C12.9612 13.1352 12.9411 13.1226 12.9184 13.1125C12.8957 13.1025 12.8705 13.0974 12.8453 13.0974C12.8428 13.0974 12.8403 13.0974 12.8403 13.0974C12.8176 13.0974 12.7949 13.1025 12.7748 13.11C12.7572 13.1176 12.742 13.1302 12.7269 13.1402C12.7219 13.1428 12.7168 13.1453 12.7118 13.1503L12.3086 13.551C12.2356 13.624 12.2356 13.745 12.3086 13.818C12.3464 13.8558 12.3943 13.8735 12.4422 13.8735C12.4901 13.8735 12.5379 13.8558 12.5757 13.818L12.6564 13.7374V14.836C12.6564 14.9469 12.742 15.03 12.8453 15.03Z" fill="black"/>
</svg>
