<svg width="16" height="16" viewBox="0 0 16 16" fill="none" xmlns="http://www.w3.org/2000/svg">
<path d="M8.568 7.82237V9.30237H9.10133V7.82237C9.10122 7.47079 9.00879 7.1254 8.8333 6.82075C8.65781 6.51609 8.40541 6.26286 8.10134 6.08637C8.30877 5.81446 8.43607 5.48999 8.46887 5.14957C8.50168 4.80915 8.43868 4.46634 8.28699 4.15982C8.1353 3.85331 7.90095 3.59529 7.6104 3.4149C7.31985 3.23451 6.98466 3.13892 6.64267 3.13892C6.30067 3.13892 5.96548 3.23451 5.67493 3.4149C5.38438 3.59529 5.15004 3.85331 4.99835 4.15982C4.84665 4.46634 4.78366 4.80915 4.81646 5.14957C4.84927 5.48999 4.97657 5.81446 5.184 6.08637C4.87961 6.26273 4.62682 6.51586 4.45088 6.82049C4.27493 7.12512 4.18199 7.47058 4.18134 7.82237V9.30237H4.71467V7.82237C4.71444 7.53767 4.79633 7.25894 4.95052 7.01961C5.10472 6.78028 5.32467 6.59051 5.584 6.47304L5.656 6.5157C5.696 6.54237 5.73867 6.56637 5.77867 6.5877C5.81584 6.60766 5.85413 6.62546 5.89334 6.64104C5.9559 6.67024 6.01999 6.69605 6.08534 6.71837C6.4434 6.83928 6.83127 6.83928 7.18933 6.71837C7.25572 6.69653 7.32073 6.6707 7.384 6.64104C7.42234 6.62545 7.45973 6.60764 7.496 6.5877C7.53836 6.56629 7.57933 6.54225 7.61867 6.5157L7.69333 6.47304C7.95387 6.58945 8.17512 6.77882 8.33034 7.01827C8.48555 7.25773 8.5681 7.53701 8.568 7.82237ZM7.48533 5.9557C7.30767 6.10095 7.09551 6.19789 6.86941 6.23713C6.6433 6.27638 6.41089 6.25659 6.19467 6.1797C6.05065 6.12951 5.91693 6.05361 5.8 5.9557C5.59788 5.78334 5.45348 5.55315 5.38627 5.29617C5.31905 5.03918 5.33226 4.76777 5.4241 4.51852C5.51594 4.26927 5.68201 4.05419 5.8999 3.90226C6.1178 3.75034 6.37704 3.66888 6.64267 3.66888C6.9083 3.66888 7.16754 3.75034 7.38543 3.90226C7.60333 4.05419 7.76939 4.26927 7.86124 4.51852C7.95308 4.76777 7.96629 5.03918 7.89907 5.29617C7.83185 5.55315 7.68745 5.78334 7.48533 5.9557Z" fill="black"/>
<path d="M2.61333 9.52641C1.95227 8.64501 1.59653 7.57216 1.6 6.47041C1.60162 5.65105 1.80017 4.84409 2.17892 4.11752C2.55767 3.39095 3.10551 2.76607 3.77629 2.29554C4.44707 1.825 5.22112 1.52259 6.03323 1.4138C6.84533 1.305 7.67169 1.39301 8.44266 1.67041L8.624 1.16908C7.48374 0.760946 6.24246 0.730332 5.08346 1.08176C3.92447 1.43318 2.90922 2.14801 2.18764 3.12068C1.46606 4.09335 1.07641 5.27228 1.07623 6.48338C1.07606 7.69448 1.46537 8.87353 2.18666 9.84641L2.61333 9.52641Z" fill="black"/>
<path d="M12.1307 11.1451L11.8053 11.4705L10.7387 10.4038C11.7659 9.34807 12.3401 7.93281 12.3387 6.4598C12.3383 6.16334 12.3152 5.86735 12.2693 5.57446L11.736 5.6598C11.7787 5.92432 11.8001 6.19185 11.8 6.4598C11.8037 7.64617 11.3951 8.79698 10.644 9.71536C9.893 10.6337 8.84619 11.2626 7.68268 11.4945L7.78401 12.0278C8.73344 11.846 9.6193 11.4206 10.3547 10.7931L11.4213 11.8598L11.096 12.1851C10.9579 12.324 10.8804 12.5119 10.8804 12.7078C10.8804 12.9037 10.9579 13.0916 11.096 13.2305L13.024 15.1611L13.4027 14.7825L11.4667 12.8438C11.4322 12.8048 11.4131 12.7545 11.4131 12.7025C11.4131 12.6504 11.4322 12.6001 11.4667 12.5611L12.5067 11.5211C12.5457 11.4824 12.5984 11.4606 12.6533 11.4606C12.7083 11.4606 12.761 11.4824 12.8 11.5211L15.0107 13.7345L15.3893 13.3611L13.176 11.1478C13.0375 11.0094 12.8498 10.9314 12.6539 10.9309C12.458 10.9304 12.2699 11.0074 12.1307 11.1451Z" fill="black"/>
<path d="M15.7333 1.36108H9.33335C9.26262 1.36108 9.1948 1.38918 9.14479 1.43919C9.09478 1.4892 9.06668 1.55703 9.06668 1.62775V4.82775C9.06668 4.89847 9.09478 4.9663 9.14479 5.01631C9.1948 5.06632 9.26262 5.09442 9.33335 5.09442H15.7333C15.8041 5.09442 15.8719 5.06632 15.9219 5.01631C15.9719 4.9663 16 4.89847 16 4.82775V1.62775C16 1.55703 15.9719 1.4892 15.9219 1.43919C15.8719 1.38918 15.8041 1.36108 15.7333 1.36108ZM15.4667 4.56108H9.60001V1.89442H15.4667V4.56108Z" fill="black"/>
<path d="M14.9333 2.42773H10.1333V2.96107H14.9333V2.42773Z" fill="black"/>
<path d="M12.8 3.49438H10.1333V4.02772H12.8V3.49438Z" fill="black"/>
<path d="M14.9333 3.49438H13.3333V4.02772H14.9333V3.49438Z" fill="black"/>
<path d="M6.66667 10.1611H0.266667C0.195942 10.1611 0.128115 10.1892 0.0781048 10.2392C0.0280951 10.2892 0 10.3571 0 10.4278V13.6278C0 13.6985 0.0280951 13.7664 0.0781048 13.8164C0.128115 13.8664 0.195942 13.8945 0.266667 13.8945H6.66667C6.73739 13.8945 6.80522 13.8664 6.85523 13.8164C6.90524 13.7664 6.93333 13.6985 6.93333 13.6278V10.4278C6.93333 10.3571 6.90524 10.2892 6.85523 10.2392C6.80522 10.1892 6.73739 10.1611 6.66667 10.1611ZM6.4 13.3611H0.533333V10.6945H6.4V13.3611Z" fill="black"/>
<path d="M5.86668 11.2278H1.06668V11.7611H5.86668V11.2278Z" fill="black"/>
<path d="M3.73335 12.2944H1.06668V12.8278H3.73335V12.2944Z" fill="black"/>
<path d="M5.86666 12.2944H4.26666V12.8278H5.86666V12.2944Z" fill="black"/>
</svg>
