<svg width="16" height="16" viewBox="0 0 16 16" fill="none" xmlns="http://www.w3.org/2000/svg">
<path d="M15.9134 4.51354C15.9134 5.33858 15.2409 6.00946 14.4141 6.00946C13.6568 6.00946 13.03 5.44701 12.9301 4.71853H8.67273C7.40552 4.71853 6.3738 5.74687 6.3738 7.01238C6.3738 8.27789 7.40552 9.30623 8.67273 9.30623H12.5523C14.0448 9.30623 15.2612 10.5192 15.2612 12.0084C15.2612 13.4975 14.0465 14.7105 12.5523 14.7105H3.11938C3.01942 15.439 2.3909 16.0014 1.63532 16.0014C0.808585 16.0014 0.136016 15.3305 0.136016 14.5055C0.136016 14.392 0.227499 14.3005 0.341006 14.3005C0.454513 14.3005 0.545995 14.392 0.545995 14.5055C0.545995 15.1052 1.0356 15.5931 1.63532 15.5931C2.23504 15.5931 2.72464 15.1052 2.72464 14.5055C2.72464 14.392 2.81613 14.3005 2.92963 14.3005H12.5523C13.8195 14.3005 14.8512 13.2722 14.8512 12.0067C14.8512 10.7412 13.8195 9.71282 12.5523 9.71282H8.67273C7.17851 9.71282 5.96382 8.49982 5.96382 7.01069C5.96382 5.52155 7.17851 4.30855 8.67273 4.30855H13.1215C13.235 4.30855 13.3265 4.40003 13.3265 4.51354C13.3265 5.11326 13.8161 5.60117 14.4158 5.60117C15.0155 5.60117 15.5068 5.11326 15.5068 4.51354C15.5068 4.40003 15.5983 4.30855 15.7118 4.30855C15.8253 4.30855 15.9168 4.40003 15.9168 4.51354H15.9134ZM0.427406 13.4636C-0.45354 11.7034 0.246135 10.8801 0.586654 10.6073C1.18129 10.133 2.07749 10.1431 2.67213 10.6327C3.38366 11.2189 3.43787 12.2845 2.81443 13.4856C2.81443 13.489 2.81104 13.4907 2.80935 13.4941L2.78394 13.5399C2.45697 14.1074 2.0724 14.7122 1.63532 14.7122C1.19823 14.7122 0.805197 14.1209 0.435877 13.4823C0.434183 13.4789 0.429101 13.4704 0.427406 13.467V13.4636ZM0.793338 13.2807C1.32699 14.2006 1.56078 14.3022 1.63701 14.3022C1.74544 14.3022 1.97076 14.1345 2.43156 13.3349L2.45528 13.2925C2.98893 12.2625 2.97368 11.4069 2.41462 10.9478C2.1893 10.7632 1.8996 10.67 1.6116 10.67C1.3236 10.67 1.05932 10.7547 0.844162 10.9275C0.286794 11.3714 0.269853 12.2303 0.795032 13.2807H0.793338ZM0.713714 11.8864C0.713714 11.3832 1.12369 10.9749 1.62854 10.9749C2.13339 10.9749 2.54337 11.3849 2.54337 11.8864C2.54337 12.3878 2.13339 12.7978 1.62854 12.7978C1.12369 12.7978 0.713714 12.3878 0.713714 11.8864ZM1.122 11.8864C1.122 12.1642 1.34901 12.3895 1.62685 12.3895C1.90469 12.3895 2.1317 12.1642 2.1317 11.8864C2.1317 11.6086 1.90469 11.3832 1.62685 11.3832C1.34901 11.3832 1.122 11.6086 1.122 11.8864ZM13.1808 3.20398C12.2999 1.44378 12.9995 0.620436 13.34 0.347681C13.9347 -0.126675 14.8309 -0.11651 15.4255 0.373093C16.1371 0.959261 16.1913 2.02487 15.5678 3.226C15.5678 3.22939 15.5644 3.23109 15.5627 3.23448L15.5356 3.28022C15.2087 3.84606 14.8241 4.45086 14.3887 4.45086C13.9533 4.45086 13.5586 3.85961 13.1893 3.21923C13.1876 3.21584 13.1825 3.20737 13.1808 3.20398ZM13.5467 3.02101C14.0804 3.94093 14.3142 4.04257 14.3904 4.04257C14.4988 4.04257 14.7242 3.87486 15.1833 3.07692L15.207 3.03457C15.7406 2.00454 15.7254 1.149 15.1663 0.689895C14.941 0.505235 14.6513 0.412058 14.3616 0.412058C14.0719 0.412058 13.8093 0.496764 13.5942 0.669565C13.0368 1.11343 13.0199 1.97235 13.545 3.02271L13.5467 3.02101ZM13.4671 1.62675C13.4671 1.12359 13.8771 0.715307 14.3802 0.715307C14.8834 0.715307 15.2951 1.12529 15.2951 1.62675C15.2951 2.12821 14.8851 2.53819 14.3802 2.53819C13.8754 2.53819 13.4671 2.12821 13.4671 1.62675ZM13.8754 1.62675C13.8754 1.90458 14.1024 2.1299 14.3802 2.1299C14.6581 2.1299 14.8851 1.90458 14.8851 1.62675C14.8851 1.34891 14.6581 1.12359 14.3802 1.12359C14.1024 1.12359 13.8754 1.34891 13.8754 1.62675Z" fill="black"/>
</svg>
