<svg width="16" height="14" viewBox="0 0 16 14" fill="none" xmlns="http://www.w3.org/2000/svg">
<path d="M5.84124 4.71422H9.90476C10.0451 4.71422 10.1587 4.60057 10.1587 4.46025C10.1587 3.50469 9.56952 2.68498 8.73523 2.34348C8.98539 2.11109 9.14285 1.77966 9.14285 1.41267C9.14285 0.712349 8.57332 0.142822 7.873 0.142822C7.17267 0.142822 6.60315 0.712349 6.60315 1.41267C6.60315 1.78029 6.76061 2.11173 7.01077 2.34348C6.17648 2.68444 5.58727 3.50412 5.58727 4.46025C5.58727 4.60057 5.70092 4.71422 5.84124 4.71422ZM7.11109 1.41269C7.11109 0.992375 7.45268 0.650779 7.873 0.650779C8.29268 0.650779 8.63491 0.992375 8.63491 1.41269C8.63491 1.833 8.29331 2.1746 7.873 2.1746C7.45268 2.1746 7.11109 1.833 7.11109 1.41269ZM7.873 2.68254C8.76697 2.68254 9.50913 3.34603 9.63299 4.20636H6.11365C6.23683 3.34603 6.97969 2.68254 7.87365 2.68254H7.873Z" fill="black"/>
<path d="M4.57146 11.3172C4.57146 10.3616 3.98225 9.54191 3.14796 9.20041C3.39813 8.96803 3.55558 8.63659 3.55558 8.26961C3.55558 7.56928 2.98605 6.99976 2.28573 6.99976C1.58541 6.99976 1.01588 7.56928 1.01588 8.26961C1.01588 8.63722 1.17334 8.96866 1.4235 9.20041C0.589211 9.54137 0 10.3611 0 11.3172C0 11.4575 0.113652 11.5712 0.25397 11.5712H4.31749C4.45781 11.5712 4.57146 11.4575 4.57146 11.3172ZM1.52382 8.26954C1.52382 7.84923 1.86542 7.50763 2.28573 7.50763C2.70604 7.50763 3.04764 7.84923 3.04764 8.26954C3.04764 8.68986 2.70604 9.03145 2.28573 9.03145C1.86542 9.03145 1.52382 8.68986 1.52382 8.26954ZM0.525722 11.0633C0.648897 10.203 1.39176 9.53947 2.28571 9.53947C3.17967 9.53947 3.92185 10.203 4.04571 11.0633H0.525722Z" fill="black"/>
<path d="M14.5765 9.20041C14.8267 8.96803 14.9841 8.63659 14.9841 8.26961C14.9841 7.56928 14.4146 6.99976 13.7143 6.99976C13.014 6.99976 12.4444 7.56928 12.4444 8.26961C12.4444 8.63722 12.6019 8.96866 12.852 9.20041C12.0178 9.54137 11.4285 10.3611 11.4285 11.3172C11.4285 11.4575 11.5422 11.5712 11.6825 11.5712H15.746C15.8864 11.5712 16 11.4575 16 11.3172C16 10.3616 15.4108 9.54191 14.5765 9.20041ZM12.9524 8.26961C12.9524 7.84929 13.294 7.5077 13.7143 7.5077C14.1346 7.5077 14.4762 7.84929 14.4762 8.26961C14.4762 8.68992 14.1346 9.03152 13.7143 9.03152C13.294 9.03152 12.9524 8.68992 12.9524 8.26961ZM11.9543 11.0634C12.0774 10.203 12.8203 9.53954 13.7143 9.53954C14.6082 9.53954 15.3504 10.203 15.4742 11.0634H11.9543Z" fill="black"/>
<path d="M2.48817 6.49949C2.51484 6.50838 2.5415 6.51219 2.56817 6.51219C2.67484 6.51219 2.77388 6.44489 2.80945 6.33822C3.22596 5.0817 4.09072 4.029 5.24626 3.3738C5.36816 3.3046 5.41134 3.14967 5.3415 3.02714C5.27229 2.90523 5.11737 2.86206 4.99483 2.9319C3.73007 3.64937 2.78216 4.80242 2.32624 6.17897C2.28179 6.31231 2.35417 6.4558 2.48751 6.50025L2.48817 6.49949Z" fill="black"/>
<path d="M10.5003 3.37375C11.6711 4.03787 12.5421 5.10708 12.9524 6.384C12.9873 6.49194 13.087 6.56051 13.1943 6.56051C13.2197 6.56051 13.2464 6.5567 13.2724 6.54844C13.4057 6.50527 13.4794 6.36242 13.4362 6.22908C12.9867 4.83034 12.0337 3.65948 10.7517 2.93259C10.6298 2.86339 10.4749 2.90593 10.405 3.02783C10.3358 3.14974 10.3784 3.30465 10.5003 3.3745L10.5003 3.37375Z" fill="black"/>
<path d="M11.2584 12.1369C10.3079 12.9185 9.10603 13.3489 7.873 13.3489C6.64061 13.3489 5.43814 12.9185 4.4876 12.1369C4.37966 12.048 4.21903 12.0632 4.13014 12.1718C4.04125 12.2797 4.05649 12.4397 4.16506 12.5293C5.20633 13.3851 6.5232 13.8569 7.87294 13.8569C9.22268 13.8569 10.5396 13.3858 11.5808 12.5293C11.6888 12.4404 11.7046 12.2804 11.6157 12.1718C11.5269 12.0639 11.367 12.048 11.2584 12.1369Z" fill="black"/>
<path d="M9.65086 8.52375C9.79118 8.52375 9.90483 8.4101 9.90483 8.26978C9.90483 8.12946 9.79118 8.01581 9.65086 8.01581H9.11753C9.08451 7.85391 9.02038 7.70342 8.93213 7.57009L9.30991 7.19231C9.40896 7.09327 9.40896 6.93199 9.30991 6.83295C9.21086 6.73392 9.04959 6.7339 8.95055 6.83295L8.57277 7.21073C8.43944 7.12248 8.28896 7.05835 8.12705 7.02534V6.49201C8.12705 6.35169 8.0134 6.23804 7.87308 6.23804C7.73276 6.23804 7.61911 6.35169 7.61911 6.49201V7.02534C7.45721 7.05835 7.30673 7.12248 7.17339 7.21073L6.79562 6.83295C6.69657 6.7339 6.53529 6.7339 6.43625 6.83295C6.33722 6.932 6.33721 7.09328 6.43625 7.19231L6.81403 7.57009C6.72578 7.70343 6.66165 7.8539 6.62864 8.01581H6.09531C5.95499 8.01581 5.84134 8.12946 5.84134 8.26978C5.84134 8.4101 5.95499 8.52375 6.09531 8.52375H6.62864C6.66165 8.68566 6.72578 8.83614 6.81403 8.96947L6.43625 9.34725C6.33721 9.4463 6.33721 9.60757 6.43625 9.70661C6.48578 9.75613 6.55054 9.7809 6.61594 9.7809C6.68071 9.7809 6.74547 9.75613 6.79563 9.70661L7.17341 9.32883C7.30674 9.41709 7.45722 9.48121 7.61913 9.51423V10.0476C7.61913 10.1879 7.73278 10.3015 7.8731 10.3015C8.01342 10.3015 8.12707 10.1879 8.12707 10.0476V9.51423C8.28898 9.48121 8.43946 9.41708 8.57279 9.32883L8.95057 9.70661C9.00009 9.75613 9.06485 9.7809 9.13025 9.7809C9.19566 9.7809 9.25978 9.75613 9.30994 9.70661C9.40899 9.60756 9.40899 9.44628 9.30994 9.34725L8.93217 8.96947C9.02042 8.83614 9.08455 8.68566 9.11756 8.52375H9.65086ZM7.87299 9.03169C7.45267 9.03169 7.11108 8.6901 7.11108 8.26978C7.11108 7.84947 7.45267 7.50787 7.87299 7.50787C8.29267 7.50787 8.6349 7.84947 8.6349 8.26978C8.6349 8.6901 8.2933 9.03169 7.87299 9.03169Z" fill="black"/>
</svg>
